<svg width="63" height="50" viewBox="0 0 63 50" fill="none" xmlns="http://www.w3.org/2000/svg">
<path d="M13.0853 0C9.49057 0 6.83143 3.13479 6.95014 6.53447C7.06433 9.79996 6.91608 14.0302 5.84671 17.4793C4.77484 20.9393 2.96167 23.1258 0 23.4072V26.5933C2.96167 26.8742 4.77484 29.0612 5.84671 32.5212C6.91608 35.9703 7.06383 40.2005 6.95014 43.466C6.83093 46.8657 9.49057 50 13.0853 50H49.9197C53.5144 50 56.1736 46.8652 56.0549 43.466C55.9407 40.2005 56.0889 35.9703 57.1578 32.5212C58.2297 29.0617 60.0383 26.8747 63 26.5933V23.4072C60.0383 23.1263 58.2302 20.9393 57.1578 17.4793C56.0889 14.0302 55.9407 9.79996 56.0549 6.53447C56.1736 3.13479 53.5144 0 49.9192 0H13.0853ZM42.1932 30.7722C42.1932 35.4535 38.686 38.2914 32.8664 38.2914H22.1366C22.0714 38.2914 22.0089 38.2656 21.9628 38.2197C21.9166 38.1738 21.8907 38.1115 21.8907 38.0465V11.9435C21.8907 11.9113 21.897 11.8794 21.9093 11.8496C21.9216 11.8199 21.9397 11.7928 21.9626 11.77C21.9854 11.7472 22.0126 11.7291 22.0424 11.7168C22.0723 11.7044 22.1043 11.6981 22.1366 11.6981H32.8098C37.6628 11.6981 40.8473 14.3151 40.8473 18.3328C40.8473 21.1528 38.7051 23.677 35.9753 24.1195V24.2672C39.6908 24.6728 42.1932 27.2344 42.1932 30.7722ZM31.786 15.0708H26.1371V23.0136H30.8954C34.5729 23.0136 36.6009 21.5395 36.6009 18.904C36.6009 16.4347 34.8574 15.0708 31.786 15.0708V15.0708ZM26.1371 26.1653V34.9192H31.9949C35.824 34.9192 37.8526 33.3897 37.8526 30.5143C37.8526 27.6394 35.7675 26.1653 31.7484 26.1653H26.1371Z" fill="#29382B"/>
</svg>
