<svg width="45" height="51" viewBox="0 0 45 51" fill="none" xmlns="http://www.w3.org/2000/svg">
<path d="M0 0L4.09554 45.8863L22.4727 51L40.9012 45.8676L45 0H0ZM36.4916 10.5128L35.1283 25.799L35.1324 25.8815L35.1267 26.0713V26.0697L34.1581 36.7581L34.0514 37.7076L22.5 40.8962V40.8966L22.491 40.9043L10.9596 37.6979L10.1788 28.8611H15.8335L16.2347 33.3545L22.5016 35.0496L22.5 35.0528V35.052L28.7901 33.3329L29.4549 26.0156H16.3056L16.1927 24.7787L15.9357 21.8808L15.8009 20.3247H29.9547L30.4695 14.6338H8.91202L8.7992 13.3976L8.54259 10.4989L8.40736 8.94288H36.6264L36.4916 10.5128V10.5128Z" fill="#29382B"/>
</svg>
