<svg width="86" height="50" viewBox="0 0 86 50" fill="none" xmlns="http://www.w3.org/2000/svg">
<path d="M86 48.6751C82.872 49.4722 80.9375 48.7095 79.202 46.0984C75.3057 40.251 71.0047 34.6716 66.8546 28.9891C66.3195 28.2538 65.7639 27.5324 65.0711 26.6185C60.1595 33.2561 55.2548 39.5776 50.652 46.1534C49.0057 48.5033 47.277 49.5271 44.2039 48.6957L62.6702 23.87L45.4798 1.4492C48.4363 0.872016 50.4805 1.16748 52.2915 3.81977C56.2907 9.67405 60.7014 15.2466 65.0985 21.1421C69.523 15.2672 73.8789 9.68779 77.9947 3.88848C79.6479 1.53852 81.4246 0.645265 84.3948 1.51104C82.1449 4.50002 79.9429 7.4409 77.7272 10.3612C74.7364 14.2984 71.8004 18.2837 68.6998 22.1384C67.5954 23.5127 67.7738 24.406 68.7616 25.7046C74.4963 33.2561 80.1624 40.8831 86 48.6751ZM0.0205791 23.4577C0.514477 20.9772 0.843743 18.4486 1.52971 16.0162C5.64553 1.29116 22.5204 -4.8311 34.1133 4.29388C40.9044 9.64657 42.5918 17.1912 42.2557 25.6977H3.97862C3.40241 40.9587 14.3711 50.173 28.3511 45.4731C33.2558 43.824 36.1437 39.9761 37.5911 35.1663C38.3251 32.7545 39.5393 32.3766 41.803 33.0637C40.6437 39.0829 38.0164 44.1126 32.5287 47.2596C24.297 51.9733 12.5464 50.4479 6.3658 43.8996C2.71644 40.0517 1.16615 35.2625 0.480179 30.0885C0.377283 29.2639 0.164633 28.4531 0 27.6354C0.0137194 26.2429 0.0205791 24.8503 0.0205791 23.4577V23.4577ZM4.04722 22.4339H38.6407C38.4143 11.3987 31.5546 3.55866 22.1774 3.48995C11.8879 3.4075 4.4931 11.062 4.04722 22.4339V22.4339Z" fill="black"/>
</svg>
