<svg width="34" height="51" viewBox="0 0 34 51" fill="none" xmlns="http://www.w3.org/2000/svg">
<path d="M8.77344 50.3906C13.4219 50.3906 17.1719 46.6406 17.1719 41.9922V33.5938H8.77344C4.125 33.5938 0.375 37.3438 0.375 41.9922C0.375 46.6406 4.125 50.3906 8.77344 50.3906Z" fill="#5B665C"/>
<path d="M0.375 25.1953C0.375 20.5469 4.125 16.7969 8.77344 16.7969H17.1719V33.5938H8.77344C4.125 33.5938 0.375 29.8437 0.375 25.1953Z" fill="#818181"/>
<path d="M0.375 8.39844C0.375 3.75 4.125 0 8.77344 0H17.1719V16.7969H8.77344C4.125 16.7969 0.375 13.0469 0.375 8.39844Z" fill="#29382B"/>
<path d="M17.1719 0H25.5703C30.2187 0 33.9688 3.75 33.9688 8.39844C33.9688 13.0469 30.2187 16.7969 25.5703 16.7969H17.1719V0Z" fill="#5E5E5E"/>
<path d="M33.9688 25.1953C33.9688 29.8437 30.2187 33.5938 25.5703 33.5938C20.9219 33.5938 17.1719 29.8437 17.1719 25.1953C17.1719 20.5469 20.9219 16.7969 25.5703 16.7969C30.2187 16.7969 33.9688 20.5469 33.9688 25.1953Z" fill="#29382B"/>
</svg>
