<svg width="48" height="47" viewBox="0 0 48 47" fill="none" xmlns="http://www.w3.org/2000/svg">
<path fill-rule="evenodd" clip-rule="evenodd" d="M23.5891 0C10.5629 0 0 10.5605 0 23.5891C0 34.0117 6.75898 42.8535 16.1316 45.9731C17.3102 46.1918 17.743 45.4613 17.743 44.8383C17.743 44.2758 17.7211 42.4176 17.7109 40.4465C11.1484 41.8734 9.76367 37.6633 9.76367 37.6633C8.69063 34.9367 7.14453 34.2117 7.14453 34.2117C5.00391 32.7477 7.30586 32.7781 7.30586 32.7781C9.67422 32.9441 10.9219 35.209 10.9219 35.209C13.0258 38.8145 16.4402 37.7723 17.7863 37.1699C17.998 35.6453 18.6094 34.6043 19.284 34.0152C14.0445 33.4195 8.53633 31.3965 8.53633 22.3578C8.53633 19.7824 9.4582 17.6781 10.9672 16.0258C10.7219 15.432 9.91445 13.0328 11.1953 9.78359C11.1953 9.78359 13.1758 9.14961 17.6836 12.2016C19.5656 11.6785 21.584 11.4156 23.5891 11.4066C25.593 11.4156 27.6125 11.6777 29.498 12.2008C34.0004 9.14883 35.9785 9.78281 35.9785 9.78281C37.2625 13.0316 36.4551 15.4313 36.2102 16.025C37.7227 17.6773 38.6379 19.7816 38.6379 22.357C38.6379 31.4172 33.1195 33.4117 27.8668 33.9961C28.7133 34.7281 29.4672 36.1641 29.4672 38.3645C29.4672 41.5207 29.4398 44.0609 29.4398 44.8379C29.4398 45.4656 29.8648 46.2012 31.0602 45.9695C40.4273 42.8469 47.1785 34.0078 47.1785 23.5891C47.1781 10.5613 36.6164 0.000390597 23.5891 0.000390597V0Z" fill="#181616"/>
</svg>
