<svg width="50" height="50" viewBox="0 0 50 50" fill="none" xmlns="http://www.w3.org/2000/svg">
<path d="M0.78125 0.390625V49.2188H49.6094V0.390625H0.78125ZM26.609 41.9973C25.8883 43.4617 24.5125 44.4238 22.9184 44.8883C20.4688 45.4508 18.1258 45.1301 16.3828 44.084C15.2164 43.3684 14.3055 42.2668 13.6871 40.9977L17.4059 38.7203C17.4383 38.734 17.5359 38.9105 17.6664 39.1387C18.1406 39.9332 18.5496 40.4957 19.3535 40.8906C20.1434 41.1602 21.8773 41.3324 22.5469 39.9426C22.9559 39.2355 22.8258 36.9629 22.8258 34.4484C22.8254 30.4973 22.8437 26.5625 22.8437 22.6562H27.4176C27.4176 26.9531 27.441 31.0227 27.4176 35.2156C27.4273 37.7859 27.6504 40.0773 26.609 41.9973ZM45.5832 40.7051C43.9934 46.1434 35.1293 46.3199 31.5871 42.727C30.8387 41.8812 30.3695 41.4395 29.923 40.4633C31.8055 39.3805 31.8055 39.3805 33.6371 38.3207C34.632 39.85 35.552 40.691 37.207 41.0352C39.4523 41.3094 41.7113 40.5379 41.2047 38.1531C40.684 36.2055 36.607 35.7316 33.8324 33.6488C31.0156 31.757 30.3555 27.1602 32.6703 24.5336C33.4418 23.5621 34.7574 22.8371 36.1379 22.4887L37.5785 22.3023C40.3445 22.2465 42.0734 22.977 43.3426 24.3941C43.6957 24.752 43.984 25.1379 44.523 25.9742C43.0496 26.9133 43.0543 26.9043 40.9438 28.2707C40.493 27.2996 39.7449 26.6902 38.9543 26.4254C37.727 26.0535 36.1793 26.4578 35.8582 27.7547C35.7469 28.1543 35.7699 28.5262 35.9469 29.1863C36.4441 30.3203 38.1129 30.8133 39.6098 31.5012C43.9188 33.2488 45.3738 35.1227 45.7316 37.3531C46.0762 39.2734 45.6484 40.5191 45.5832 40.7051V40.7051Z" fill="#29382B"/>
</svg>
