<svg width="327" height="105" viewBox="0 0 327 105" fill="none" xmlns="http://www.w3.org/2000/svg">
<path d="M81.1693 99C81.0626 99 80.9773 98.968 80.9133 98.904C80.8493 98.84 80.8173 98.7547 80.8173 98.648V87.976C80.8173 87.8587 80.8439 87.7733 80.8973 87.72C80.9613 87.656 81.0466 87.624 81.1533 87.624C81.2599 87.624 81.3399 87.656 81.3932 87.72C81.4573 87.7733 81.4893 87.8587 81.4893 87.976V98.376H87.2493C87.3666 98.376 87.4519 98.4027 87.5052 98.456C87.5693 98.5093 87.6013 98.584 87.6013 98.68C87.6013 98.7867 87.5693 98.8667 87.5052 98.92C87.4519 98.9733 87.3666 99 87.2493 99H81.1693ZM92.2166 99.128C91.4486 99.128 90.7873 98.968 90.2326 98.648C89.678 98.328 89.246 97.8747 88.9366 97.288C88.638 96.6907 88.4886 95.9813 88.4886 95.16C88.4886 94.3493 88.638 93.6453 88.9366 93.048C89.246 92.44 89.6673 91.9707 90.2006 91.64C90.7446 91.2987 91.3686 91.128 92.0726 91.128C92.574 91.128 93.0166 91.2133 93.4006 91.384C93.7953 91.5547 94.126 91.8 94.3926 92.12C94.67 92.44 94.878 92.8293 95.0166 93.288C95.166 93.7467 95.2406 94.264 95.2406 94.84C95.2406 94.9787 95.2086 95.0853 95.1446 95.16C95.0913 95.224 95.006 95.256 94.8886 95.256H88.9206V94.664H94.8886L94.6166 94.856C94.6166 94.2053 94.5206 93.6507 94.3286 93.192C94.1366 92.7227 93.8486 92.3653 93.4646 92.12C93.0913 91.864 92.622 91.736 92.0566 91.736C91.438 91.736 90.91 91.8853 90.4726 92.184C90.046 92.472 89.7206 92.8667 89.4966 93.368C89.2833 93.8693 89.1766 94.44 89.1766 95.08V95.16C89.1766 96.2267 89.438 97.0533 89.9606 97.64C90.494 98.216 91.2353 98.504 92.1846 98.504C92.6113 98.504 93.0113 98.4507 93.3846 98.344C93.758 98.2267 94.126 98.024 94.4886 97.736C94.5633 97.672 94.638 97.64 94.7126 97.64C94.798 97.6293 94.8673 97.6453 94.9206 97.688C94.9846 97.72 95.0273 97.768 95.0486 97.832C95.0806 97.8853 95.086 97.9493 95.0646 98.024C95.0433 98.0987 94.99 98.168 94.9046 98.232C94.574 98.5093 94.1686 98.728 93.6886 98.888C93.2086 99.048 92.718 99.128 92.2166 99.128ZM100.32 99.128C99.6156 99.128 99.0023 98.9627 98.4796 98.632C97.9676 98.3013 97.5676 97.8373 97.2796 97.24C97.0023 96.6427 96.8636 95.9387 96.8636 95.128C96.8636 94.52 96.9436 93.9707 97.1036 93.48C97.2636 92.9893 97.493 92.568 97.7916 92.216C98.101 91.864 98.469 91.5973 98.8956 91.416C99.3223 91.224 99.797 91.128 100.32 91.128C101.024 91.128 101.632 91.2933 102.144 91.624C102.666 91.9547 103.066 92.4187 103.344 93.016C103.632 93.6133 103.776 94.3173 103.776 95.128C103.776 95.736 103.696 96.2853 103.536 96.776C103.376 97.2667 103.141 97.688 102.832 98.04C102.533 98.392 102.17 98.664 101.744 98.856C101.328 99.0373 100.853 99.128 100.32 99.128ZM100.32 98.504C100.885 98.504 101.376 98.3707 101.792 98.104C102.208 97.8373 102.528 97.4533 102.752 96.952C102.976 96.44 103.088 95.832 103.088 95.128C103.088 94.0613 102.837 93.2347 102.336 92.648C101.845 92.0507 101.173 91.752 100.32 91.752C99.7543 91.752 99.2636 91.8853 98.8476 92.152C98.4316 92.4187 98.1116 92.8027 97.8876 93.304C97.6636 93.8053 97.5516 94.4133 97.5516 95.128C97.5516 96.1947 97.8023 97.0267 98.3036 97.624C98.805 98.2107 99.477 98.504 100.32 98.504ZM106.321 99.096C106.214 99.096 106.129 99.064 106.065 99C106.012 98.936 105.985 98.8507 105.985 98.744V91.512C105.985 91.3947 106.012 91.3093 106.065 91.256C106.129 91.192 106.214 91.16 106.321 91.16C106.428 91.16 106.508 91.192 106.561 91.256C106.614 91.3093 106.641 91.3947 106.641 91.512V93.144H106.465C106.678 92.472 107.046 91.9707 107.569 91.64C108.092 91.2987 108.694 91.128 109.377 91.128C109.996 91.128 110.508 91.2347 110.913 91.448C111.329 91.6613 111.638 91.9867 111.841 92.424C112.044 92.8613 112.145 93.4107 112.145 94.072V98.744C112.145 98.8507 112.113 98.936 112.049 99C111.996 99.064 111.916 99.096 111.809 99.096C111.702 99.096 111.617 99.064 111.553 99C111.5 98.936 111.473 98.8507 111.473 98.744V94.136C111.473 93.3147 111.308 92.712 110.977 92.328C110.646 91.944 110.113 91.752 109.377 91.752C108.556 91.752 107.894 92.008 107.393 92.52C106.902 93.0213 106.657 93.6987 106.657 94.552V98.744C106.657 98.9787 106.545 99.096 106.321 99.096ZM119.294 99.096C119.198 99.096 119.118 99.064 119.054 99C119.001 98.936 118.974 98.8507 118.974 98.744V87.976C118.974 87.8587 119.001 87.7733 119.054 87.72C119.108 87.656 119.177 87.624 119.262 87.624C119.358 87.624 119.433 87.6453 119.486 87.688C119.54 87.7307 119.588 87.7947 119.63 87.88L124.398 96.968H123.95L128.686 87.88C128.74 87.7947 128.788 87.7307 128.83 87.688C128.884 87.6453 128.958 87.624 129.054 87.624C129.14 87.624 129.209 87.656 129.262 87.72C129.316 87.7733 129.342 87.8587 129.342 87.976V98.744C129.342 98.8507 129.316 98.936 129.262 99C129.209 99.064 129.134 99.096 129.038 99.096C128.932 99.096 128.852 99.064 128.798 99C128.745 98.936 128.718 98.8507 128.718 98.744V88.36H129.102L124.542 97.08C124.5 97.1653 124.452 97.2293 124.398 97.272C124.356 97.3147 124.286 97.336 124.19 97.336C124.094 97.336 124.02 97.3147 123.966 97.272C123.913 97.2187 123.865 97.1547 123.822 97.08L119.198 88.344H119.598V98.744C119.598 98.8507 119.572 98.936 119.518 99C119.465 99.064 119.39 99.096 119.294 99.096ZM134.602 99.128C134.101 99.128 133.648 99.0267 133.242 98.824C132.837 98.6213 132.517 98.3493 132.282 98.008C132.048 97.656 131.93 97.2667 131.93 96.84C131.93 96.264 132.069 95.816 132.346 95.496C132.634 95.1653 133.12 94.936 133.802 94.808C134.496 94.6693 135.445 94.6 136.65 94.6H137.306V95.192H136.682C135.626 95.192 134.805 95.24 134.218 95.336C133.642 95.4213 133.237 95.5813 133.002 95.816C132.778 96.04 132.666 96.36 132.666 96.776C132.666 97.288 132.842 97.7093 133.194 98.04C133.557 98.36 134.042 98.52 134.65 98.52C135.141 98.52 135.568 98.4027 135.93 98.168C136.304 97.9227 136.597 97.5973 136.81 97.192C137.024 96.776 137.13 96.3067 137.13 95.784V93.96C137.13 93.192 136.981 92.632 136.682 92.28C136.384 91.928 135.904 91.752 135.242 91.752C134.816 91.752 134.405 91.8107 134.01 91.928C133.626 92.0453 133.221 92.2267 132.794 92.472C132.698 92.5253 132.613 92.5467 132.538 92.536C132.474 92.5253 132.421 92.4987 132.378 92.456C132.336 92.4027 132.304 92.344 132.282 92.28C132.272 92.2053 132.277 92.136 132.298 92.072C132.33 92.008 132.384 91.9547 132.458 91.912C132.896 91.6453 133.349 91.448 133.818 91.32C134.288 91.192 134.752 91.128 135.21 91.128C135.797 91.128 136.282 91.2293 136.666 91.432C137.05 91.6347 137.333 91.944 137.514 92.36C137.706 92.776 137.802 93.3093 137.802 93.96V98.744C137.802 98.8507 137.776 98.936 137.722 99C137.669 99.064 137.589 99.096 137.482 99.096C137.376 99.096 137.29 99.064 137.226 99C137.173 98.936 137.146 98.8507 137.146 98.744V97.064H137.322C137.216 97.4907 137.034 97.8587 136.778 98.168C136.522 98.4773 136.208 98.7173 135.834 98.888C135.472 99.048 135.061 99.128 134.602 99.128ZM143.765 102.008C143.2 102.008 142.645 101.928 142.101 101.768C141.568 101.608 141.082 101.357 140.645 101.016C140.592 100.973 140.554 100.92 140.533 100.856C140.522 100.792 140.528 100.728 140.549 100.664C140.57 100.611 140.602 100.557 140.645 100.504C140.698 100.461 140.752 100.435 140.805 100.424C140.869 100.424 140.933 100.445 140.997 100.488C141.466 100.819 141.914 101.048 142.341 101.176C142.778 101.315 143.258 101.384 143.781 101.384C144.581 101.384 145.189 101.155 145.605 100.696C146.021 100.248 146.229 99.6027 146.229 98.76V96.632H146.389C146.24 97.3147 145.898 97.8533 145.365 98.248C144.832 98.632 144.197 98.824 143.461 98.824C142.746 98.824 142.128 98.664 141.605 98.344C141.082 98.0133 140.677 97.56 140.389 96.984C140.112 96.3973 139.973 95.7253 139.973 94.968C139.973 94.392 140.053 93.8693 140.213 93.4C140.373 92.9307 140.602 92.5307 140.901 92.2C141.21 91.8587 141.578 91.5973 142.005 91.416C142.432 91.224 142.917 91.128 143.461 91.128C144.197 91.128 144.832 91.3253 145.365 91.72C145.898 92.104 146.24 92.6373 146.389 93.32H146.213V91.512C146.213 91.3947 146.24 91.3093 146.293 91.256C146.357 91.192 146.442 91.16 146.549 91.16C146.656 91.16 146.736 91.192 146.789 91.256C146.853 91.3093 146.885 91.3947 146.885 91.512V98.648C146.885 99.7573 146.624 100.595 146.101 101.16C145.578 101.725 144.8 102.008 143.765 102.008ZM143.445 98.2C144.021 98.2 144.517 98.0667 144.933 97.8C145.349 97.5333 145.669 97.16 145.893 96.68C146.117 96.1893 146.229 95.6187 146.229 94.968C146.229 93.9867 145.978 93.208 145.477 92.632C144.976 92.0453 144.298 91.752 143.445 91.752C142.88 91.752 142.384 91.8853 141.957 92.152C141.541 92.408 141.221 92.776 140.997 93.256C140.773 93.736 140.661 94.3067 140.661 94.968C140.661 95.9493 140.912 96.7333 141.413 97.32C141.914 97.9067 142.592 98.2 143.445 98.2ZM149.946 99.096C149.839 99.096 149.754 99.064 149.69 99C149.637 98.936 149.61 98.8507 149.61 98.744V91.512C149.61 91.3947 149.637 91.3093 149.69 91.256C149.754 91.192 149.839 91.16 149.946 91.16C150.053 91.16 150.133 91.192 150.186 91.256C150.239 91.3093 150.266 91.3947 150.266 91.512V93.144H150.09C150.303 92.472 150.671 91.9707 151.194 91.64C151.717 91.2987 152.319 91.128 153.002 91.128C153.621 91.128 154.133 91.2347 154.538 91.448C154.954 91.6613 155.263 91.9867 155.466 92.424C155.669 92.8613 155.77 93.4107 155.77 94.072V98.744C155.77 98.8507 155.738 98.936 155.674 99C155.621 99.064 155.541 99.096 155.434 99.096C155.327 99.096 155.242 99.064 155.178 99C155.125 98.936 155.098 98.8507 155.098 98.744V94.136C155.098 93.3147 154.933 92.712 154.602 92.328C154.271 91.944 153.738 91.752 153.002 91.752C152.181 91.752 151.519 92.008 151.018 92.52C150.527 93.0213 150.282 93.6987 150.282 94.552V98.744C150.282 98.9787 150.17 99.096 149.946 99.096ZM158.79 99.048C158.683 99.048 158.598 99.016 158.534 98.952C158.48 98.888 158.454 98.8027 158.454 98.696V91.56C158.454 91.4427 158.48 91.3573 158.534 91.304C158.598 91.24 158.683 91.208 158.79 91.208C158.896 91.208 158.976 91.24 159.03 91.304C159.094 91.3573 159.126 91.4427 159.126 91.56V98.696C159.126 98.8027 159.099 98.888 159.046 98.952C158.992 99.016 158.907 99.048 158.79 99.048ZM158.79 89.144C158.619 89.144 158.48 89.096 158.374 89C158.278 88.8933 158.23 88.7547 158.23 88.584C158.23 88.4027 158.278 88.2693 158.374 88.184C158.48 88.088 158.619 88.04 158.79 88.04C158.971 88.04 159.11 88.088 159.206 88.184C159.302 88.2693 159.35 88.4027 159.35 88.584C159.35 88.7547 159.302 88.8933 159.206 89C159.11 89.096 158.971 89.144 158.79 89.144ZM162.5 99.096C162.394 99.096 162.308 99.064 162.244 99C162.191 98.936 162.164 98.8507 162.164 98.744V91.832H160.9C160.794 91.832 160.708 91.8053 160.644 91.752C160.58 91.6987 160.548 91.6293 160.548 91.544C160.548 91.4587 160.58 91.3893 160.644 91.336C160.708 91.2827 160.794 91.256 160.9 91.256H162.324L162.164 91.432V90.76C162.164 89.832 162.378 89.112 162.804 88.6C163.242 88.088 163.903 87.8 164.788 87.736L165.252 87.704C165.338 87.6933 165.407 87.7093 165.46 87.752C165.514 87.784 165.546 87.832 165.556 87.896C165.578 87.9493 165.578 88.008 165.556 88.072C165.546 88.136 165.519 88.1893 165.476 88.232C165.434 88.2747 165.38 88.296 165.316 88.296L164.772 88.328C164.09 88.3707 163.594 88.6053 163.284 89.032C162.986 89.448 162.836 90.024 162.836 90.76V91.48L162.708 91.256H166.98C167.087 91.256 167.167 91.288 167.22 91.352C167.284 91.4053 167.316 91.4907 167.316 91.608V98.696C167.316 98.8027 167.29 98.888 167.236 98.952C167.183 99.016 167.098 99.048 166.98 99.048C166.874 99.048 166.788 99.016 166.724 98.952C166.671 98.888 166.644 98.8027 166.644 98.696V91.832H162.836V98.744C162.836 98.9787 162.724 99.096 162.5 99.096ZM166.98 89.144C166.81 89.144 166.671 89.096 166.564 89C166.468 88.8933 166.42 88.7547 166.42 88.584C166.42 88.4027 166.468 88.2693 166.564 88.184C166.671 88.088 166.81 88.04 166.98 88.04C167.162 88.04 167.3 88.088 167.396 88.184C167.492 88.2693 167.54 88.4027 167.54 88.584C167.54 88.7547 167.492 88.8933 167.396 89C167.3 89.096 167.162 89.144 166.98 89.144ZM173.056 99.128C172.32 99.128 171.685 98.9573 171.152 98.616C170.629 98.2747 170.224 97.8 169.936 97.192C169.659 96.584 169.52 95.8747 169.52 95.064C169.52 94.456 169.6 93.912 169.76 93.432C169.92 92.9413 170.149 92.5253 170.448 92.184C170.757 91.8427 171.131 91.5813 171.568 91.4C172.005 91.2187 172.501 91.128 173.056 91.128C173.461 91.128 173.872 91.2027 174.288 91.352C174.715 91.4907 175.093 91.7253 175.424 92.056C175.477 92.1093 175.504 92.168 175.504 92.232C175.515 92.296 175.504 92.36 175.472 92.424C175.451 92.4773 175.413 92.52 175.36 92.552C175.307 92.584 175.243 92.6 175.168 92.6C175.093 92.5893 175.019 92.5467 174.944 92.472C174.635 92.1947 174.315 92.008 173.984 91.912C173.664 91.8053 173.349 91.752 173.04 91.752C172.581 91.752 172.176 91.8267 171.824 91.976C171.472 92.1253 171.173 92.344 170.928 92.632C170.693 92.9093 170.512 93.256 170.384 93.672C170.267 94.0773 170.208 94.5467 170.208 95.08C170.208 96.1467 170.453 96.984 170.944 97.592C171.435 98.2 172.133 98.504 173.04 98.504C173.349 98.504 173.664 98.456 173.984 98.36C174.315 98.2533 174.635 98.0613 174.944 97.784C175.019 97.7093 175.093 97.672 175.168 97.672C175.243 97.6613 175.307 97.672 175.36 97.704C175.413 97.736 175.451 97.784 175.472 97.848C175.504 97.9013 175.515 97.96 175.504 98.024C175.504 98.088 175.477 98.1467 175.424 98.2C175.093 98.5307 174.715 98.7707 174.288 98.92C173.872 99.0587 173.461 99.128 173.056 99.128ZM179.571 99.128C179.07 99.128 178.616 99.0267 178.211 98.824C177.806 98.6213 177.486 98.3493 177.251 98.008C177.016 97.656 176.899 97.2667 176.899 96.84C176.899 96.264 177.038 95.816 177.315 95.496C177.603 95.1653 178.088 94.936 178.771 94.808C179.464 94.6693 180.414 94.6 181.619 94.6H182.275V95.192H181.651C180.595 95.192 179.774 95.24 179.187 95.336C178.611 95.4213 178.206 95.5813 177.971 95.816C177.747 96.04 177.635 96.36 177.635 96.776C177.635 97.288 177.811 97.7093 178.163 98.04C178.526 98.36 179.011 98.52 179.619 98.52C180.11 98.52 180.536 98.4027 180.899 98.168C181.272 97.9227 181.566 97.5973 181.779 97.192C181.992 96.776 182.099 96.3067 182.099 95.784V93.96C182.099 93.192 181.95 92.632 181.651 92.28C181.352 91.928 180.872 91.752 180.211 91.752C179.784 91.752 179.374 91.8107 178.979 91.928C178.595 92.0453 178.19 92.2267 177.763 92.472C177.667 92.5253 177.582 92.5467 177.507 92.536C177.443 92.5253 177.39 92.4987 177.347 92.456C177.304 92.4027 177.272 92.344 177.251 92.28C177.24 92.2053 177.246 92.136 177.267 92.072C177.299 92.008 177.352 91.9547 177.427 91.912C177.864 91.6453 178.318 91.448 178.787 91.32C179.256 91.192 179.72 91.128 180.179 91.128C180.766 91.128 181.251 91.2293 181.635 91.432C182.019 91.6347 182.302 91.944 182.483 92.36C182.675 92.776 182.771 93.3093 182.771 93.96V98.744C182.771 98.8507 182.744 98.936 182.691 99C182.638 99.064 182.558 99.096 182.451 99.096C182.344 99.096 182.259 99.064 182.195 99C182.142 98.936 182.115 98.8507 182.115 98.744V97.064H182.291C182.184 97.4907 182.003 97.8587 181.747 98.168C181.491 98.4773 181.176 98.7173 180.803 98.888C180.44 99.048 180.03 99.128 179.571 99.128ZM188.174 99.128C187.64 99.128 187.192 99.0267 186.83 98.824C186.467 98.6107 186.195 98.312 186.014 97.928C185.832 97.5333 185.742 97.0587 185.742 96.504V91.832H184.446C184.339 91.832 184.254 91.8053 184.19 91.752C184.126 91.6987 184.094 91.6293 184.094 91.544C184.094 91.4587 184.126 91.3893 184.19 91.336C184.254 91.2827 184.339 91.256 184.446 91.256H185.742V89.096C185.742 88.9787 185.768 88.8933 185.822 88.84C185.886 88.776 185.971 88.744 186.078 88.744C186.184 88.744 186.264 88.776 186.318 88.84C186.382 88.8933 186.414 88.9787 186.414 89.096V91.256H188.702C188.819 91.256 188.904 91.2827 188.958 91.336C189.022 91.3893 189.054 91.4587 189.054 91.544C189.054 91.6293 189.022 91.6987 188.958 91.752C188.904 91.8053 188.819 91.832 188.702 91.832H186.414V96.36C186.414 97.0533 186.552 97.5867 186.83 97.96C187.107 98.3227 187.571 98.504 188.222 98.504C188.446 98.504 188.627 98.4827 188.766 98.44C188.915 98.3867 189.038 98.36 189.134 98.36C189.198 98.36 189.251 98.3867 189.294 98.44C189.347 98.4933 189.374 98.568 189.374 98.664C189.374 98.7173 189.358 98.776 189.326 98.84C189.304 98.8933 189.256 98.9307 189.182 98.952C189.075 98.9947 188.92 99.032 188.718 99.064C188.526 99.1067 188.344 99.128 188.174 99.128ZM195.028 99.096C194.922 99.096 194.836 99.064 194.772 99C194.719 98.936 194.692 98.8507 194.692 98.744V87.976C194.692 87.8587 194.719 87.7733 194.772 87.72C194.836 87.656 194.922 87.624 195.028 87.624C195.135 87.624 195.215 87.656 195.268 87.72C195.332 87.7733 195.364 87.8587 195.364 87.976V92.968H195.396L201.14 87.864C201.247 87.7787 201.343 87.72 201.428 87.688C201.514 87.6453 201.599 87.624 201.684 87.624C201.791 87.624 201.871 87.6453 201.924 87.688C201.978 87.7307 201.999 87.7893 201.988 87.864C201.978 87.928 201.93 87.9973 201.844 88.072L195.684 93.528L195.716 93.016L202.132 98.552C202.239 98.6373 202.298 98.7227 202.308 98.808C202.319 98.8933 202.292 98.9627 202.228 99.016C202.175 99.0693 202.095 99.096 201.988 99.096C201.903 99.096 201.823 99.0747 201.748 99.032C201.674 99 201.594 98.9467 201.508 98.872L195.396 93.592H195.364V98.744C195.364 98.8507 195.338 98.936 195.284 99C195.231 99.064 195.146 99.096 195.028 99.096ZM205.948 99.096C205.841 99.096 205.74 99.064 205.644 99C205.558 98.936 205.489 98.8347 205.436 98.696L202.988 91.72C202.945 91.592 202.934 91.4907 202.956 91.416C202.977 91.3307 203.014 91.2667 203.068 91.224C203.132 91.1813 203.201 91.16 203.276 91.16C203.372 91.16 203.446 91.1813 203.5 91.224C203.553 91.2667 203.596 91.3413 203.628 91.448L206.14 98.792H205.724L208.316 91.56C208.369 91.4213 208.438 91.32 208.524 91.256C208.62 91.192 208.726 91.16 208.844 91.16C208.961 91.16 209.068 91.192 209.164 91.256C209.26 91.32 209.329 91.4213 209.372 91.56L211.9 98.792H211.484L214.06 91.448C214.102 91.3307 214.145 91.256 214.188 91.224C214.241 91.1813 214.321 91.16 214.428 91.16C214.534 91.16 214.609 91.1867 214.652 91.24C214.694 91.2933 214.716 91.3627 214.716 91.448C214.726 91.5333 214.716 91.624 214.684 91.72L212.204 98.696C212.161 98.8347 212.092 98.936 211.996 99C211.91 99.064 211.814 99.096 211.708 99.096C211.601 99.096 211.5 99.064 211.404 99C211.318 98.936 211.249 98.8347 211.196 98.696L208.604 91.368H209.1L206.46 98.696C206.417 98.8347 206.348 98.936 206.252 99C206.166 99.064 206.065 99.096 205.948 99.096ZM217.165 99.048C217.058 99.048 216.973 99.016 216.909 98.952C216.855 98.888 216.829 98.8027 216.829 98.696V91.56C216.829 91.4427 216.855 91.3573 216.909 91.304C216.973 91.24 217.058 91.208 217.165 91.208C217.271 91.208 217.351 91.24 217.405 91.304C217.469 91.3573 217.501 91.4427 217.501 91.56V98.696C217.501 98.8027 217.474 98.888 217.421 98.952C217.367 99.016 217.282 99.048 217.165 99.048ZM217.165 89.144C216.994 89.144 216.855 89.096 216.749 89C216.653 88.8933 216.605 88.7547 216.605 88.584C216.605 88.4027 216.653 88.2693 216.749 88.184C216.855 88.088 216.994 88.04 217.165 88.04C217.346 88.04 217.485 88.088 217.581 88.184C217.677 88.2693 217.725 88.4027 217.725 88.584C217.725 88.7547 217.677 88.8933 217.581 89C217.485 89.096 217.346 89.144 217.165 89.144ZM220.091 99C220.006 99 219.937 98.984 219.883 98.952C219.841 98.92 219.809 98.8773 219.787 98.824C219.766 98.76 219.766 98.6907 219.787 98.616C219.809 98.5413 219.851 98.4667 219.915 98.392L224.763 91.624V91.832H220.027C219.931 91.832 219.857 91.8053 219.803 91.752C219.75 91.6987 219.723 91.6293 219.723 91.544C219.723 91.4587 219.75 91.3893 219.803 91.336C219.857 91.2827 219.931 91.256 220.027 91.256H225.099C225.195 91.256 225.27 91.272 225.323 91.304C225.387 91.336 225.43 91.3787 225.451 91.432C225.473 91.4853 225.473 91.5493 225.451 91.624C225.441 91.688 225.409 91.7573 225.355 91.832L220.459 98.648V98.424H225.387C225.59 98.424 225.691 98.52 225.691 98.712C225.691 98.7973 225.665 98.8667 225.611 98.92C225.558 98.9733 225.483 99 225.387 99H220.091ZM230.545 99.128C229.777 99.128 229.115 98.968 228.561 98.648C228.006 98.328 227.574 97.8747 227.265 97.288C226.966 96.6907 226.817 95.9813 226.817 95.16C226.817 94.3493 226.966 93.6453 227.265 93.048C227.574 92.44 227.995 91.9707 228.529 91.64C229.073 91.2987 229.697 91.128 230.401 91.128C230.902 91.128 231.345 91.2133 231.729 91.384C232.123 91.5547 232.454 91.8 232.721 92.12C232.998 92.44 233.206 92.8293 233.345 93.288C233.494 93.7467 233.569 94.264 233.569 94.84C233.569 94.9787 233.537 95.0853 233.473 95.16C233.419 95.224 233.334 95.256 233.217 95.256H227.249V94.664H233.217L232.945 94.856C232.945 94.2053 232.849 93.6507 232.657 93.192C232.465 92.7227 232.177 92.3653 231.793 92.12C231.419 91.864 230.95 91.736 230.385 91.736C229.766 91.736 229.238 91.8853 228.801 92.184C228.374 92.472 228.049 92.8667 227.825 93.368C227.611 93.8693 227.505 94.44 227.505 95.08V95.16C227.505 96.2267 227.766 97.0533 228.289 97.64C228.822 98.216 229.563 98.504 230.513 98.504C230.939 98.504 231.339 98.4507 231.713 98.344C232.086 98.2267 232.454 98.024 232.817 97.736C232.891 97.672 232.966 97.64 233.041 97.64C233.126 97.6293 233.195 97.6453 233.249 97.688C233.313 97.72 233.355 97.768 233.377 97.832C233.409 97.8853 233.414 97.9493 233.393 98.024C233.371 98.0987 233.318 98.168 233.233 98.232C232.902 98.5093 232.497 98.728 232.017 98.888C231.537 99.048 231.046 99.128 230.545 99.128ZM236.04 99.096C235.933 99.096 235.848 99.064 235.784 99C235.73 98.936 235.704 98.8507 235.704 98.744V91.512C235.704 91.3947 235.73 91.3093 235.784 91.256C235.848 91.192 235.933 91.16 236.04 91.16C236.146 91.16 236.226 91.192 236.28 91.256C236.333 91.3093 236.36 91.3947 236.36 91.512V93.064H236.2C236.402 92.4347 236.76 91.9493 237.272 91.608C237.794 91.2667 238.397 91.096 239.08 91.096C239.176 91.096 239.256 91.1173 239.32 91.16C239.394 91.192 239.432 91.2613 239.432 91.368C239.432 91.4747 239.405 91.56 239.352 91.624C239.298 91.6773 239.208 91.7093 239.08 91.72L238.888 91.736C238.098 91.8107 237.48 92.0773 237.032 92.536C236.594 92.9947 236.376 93.6027 236.376 94.36V98.744C236.376 98.8507 236.349 98.936 236.296 99C236.242 99.064 236.157 99.096 236.04 99.096ZM243.196 99.128C242.695 99.128 242.241 99.0267 241.836 98.824C241.431 98.6213 241.111 98.3493 240.876 98.008C240.641 97.656 240.524 97.2667 240.524 96.84C240.524 96.264 240.663 95.816 240.94 95.496C241.228 95.1653 241.713 94.936 242.396 94.808C243.089 94.6693 244.039 94.6 245.244 94.6H245.9V95.192H245.276C244.22 95.192 243.399 95.24 242.812 95.336C242.236 95.4213 241.831 95.5813 241.596 95.816C241.372 96.04 241.26 96.36 241.26 96.776C241.26 97.288 241.436 97.7093 241.788 98.04C242.151 98.36 242.636 98.52 243.244 98.52C243.735 98.52 244.161 98.4027 244.524 98.168C244.897 97.9227 245.191 97.5973 245.404 97.192C245.617 96.776 245.724 96.3067 245.724 95.784V93.96C245.724 93.192 245.575 92.632 245.276 92.28C244.977 91.928 244.497 91.752 243.836 91.752C243.409 91.752 242.999 91.8107 242.604 91.928C242.22 92.0453 241.815 92.2267 241.388 92.472C241.292 92.5253 241.207 92.5467 241.132 92.536C241.068 92.5253 241.015 92.4987 240.972 92.456C240.929 92.4027 240.897 92.344 240.876 92.28C240.865 92.2053 240.871 92.136 240.892 92.072C240.924 92.008 240.977 91.9547 241.052 91.912C241.489 91.6453 241.943 91.448 242.412 91.32C242.881 91.192 243.345 91.128 243.804 91.128C244.391 91.128 244.876 91.2293 245.26 91.432C245.644 91.6347 245.927 91.944 246.108 92.36C246.3 92.776 246.396 93.3093 246.396 93.96V98.744C246.396 98.8507 246.369 98.936 246.316 99C246.263 99.064 246.183 99.096 246.076 99.096C245.969 99.096 245.884 99.064 245.82 99C245.767 98.936 245.74 98.8507 245.74 98.744V97.064H245.916C245.809 97.4907 245.628 97.8587 245.372 98.168C245.116 98.4773 244.801 98.7173 244.428 98.888C244.065 99.048 243.655 99.128 243.196 99.128Z" fill="#181616"/>
<circle cx="163.5" cy="40.7444" r="36.5" fill="black"/>
<line x1="175" y1="-4.37114e-08" x2="175" y2="64.8889" stroke="#FFF9EE" stroke-width="2"/>
<path d="M200 65.344C200.552 65.344 201 64.8963 201 64.344C201 63.7917 200.552 63.344 200 63.344V65.344ZM200 63.344H174.044V65.344H200V63.344Z" fill="#FFF9EE"/>
</svg>
