<svg width="50" height="50" viewBox="0 0 50 50" fill="none" xmlns="http://www.w3.org/2000/svg">
<path fill-rule="evenodd" clip-rule="evenodd" d="M34.3897 16.7234C35.0167 18.5371 35.4683 20.3887 35.6167 22.3078C35.8011 24.6887 35.7167 27.0527 35.2147 29.3945C35.2011 29.459 35.1722 29.5195 35.1507 29.582C34.9933 29.5824 34.8327 29.5629 34.6788 29.5867C33.3784 29.791 32.0792 30.0027 30.78 30.2133C29.437 30.4309 28.0921 30.6399 26.7515 30.8723C26.2765 30.9543 25.6886 30.8563 25.4968 31.5133C25.4913 31.5313 25.4366 31.5344 25.405 31.5445L25.4698 27.6184L25.4038 18.1449L26.0296 18.0375C27.053 17.8699 28.0765 17.7 29.1007 17.5371C30.323 17.343 31.5464 17.1543 32.7694 16.9649C33.3089 16.8809 33.8491 16.8039 34.3897 16.7234V16.7234Z" fill="#3E5741"/>
<path fill-rule="evenodd" clip-rule="evenodd" d="M24.1128 42.9898C23.4527 42.4222 22.7695 41.8797 22.1367 41.2828C18.7316 38.0711 16.241 34.291 15.0144 29.7336C14.6765 28.4793 14.4511 27.2047 14.3788 25.9086C14.3281 25.0015 14.2546 24.0863 14.3187 23.184C14.4894 20.784 14.8363 18.407 15.5402 16.0953L15.5788 16.0414C15.6472 16.1324 15.7456 16.2129 15.7804 16.3156C16.4675 18.339 17.1496 20.364 17.8281 22.3902C19.9601 28.7574 22.0894 35.1261 24.2249 41.4918C24.2667 41.616 24.3749 41.7179 24.4527 41.8301L24.1128 42.9898V42.9898Z" fill="#29382B"/>
<path fill-rule="evenodd" clip-rule="evenodd" d="M34.39 16.7235C33.8493 16.8039 33.3087 16.8809 32.7692 16.9641C31.5462 17.1535 30.3228 17.3422 29.1005 17.5364C28.0763 17.6992 27.0528 17.8692 26.0294 18.0367L25.4036 18.1442L25.3989 17.736C25.3782 17.4004 25.3427 17.0653 25.3388 16.7297C25.3118 14.5899 25.295 12.45 25.2685 10.3102C25.2521 8.97073 25.2275 7.63166 25.2001 6.2926C25.1833 5.46057 25.1653 4.62815 25.1278 3.79729C25.1075 3.35081 25.0357 2.90667 25.0064 2.46018C24.99 2.20354 25.0126 1.94495 25.0177 1.68713C25.3368 2.30549 25.6489 2.92854 25.9771 3.54221C26.4954 4.51252 27.3212 5.22737 28.0646 6.00745C31.0032 9.09026 33.0896 12.6746 34.39 16.7235V16.7235Z" fill="#3E5741"/>
<path fill-rule="evenodd" clip-rule="evenodd" d="M25.4047 31.5441C25.4363 31.534 25.4914 31.5308 25.4965 31.5129C25.6883 30.8558 26.2762 30.9539 26.7512 30.8719C28.0918 30.6398 29.4367 30.4304 30.7797 30.2129C32.0789 30.0023 33.3781 29.7906 34.6785 29.5863C34.8324 29.5621 34.993 29.582 35.1504 29.5816C34.9074 30.4488 34.716 31.3347 34.4078 32.1781C34.0578 33.1347 33.6344 34.0683 33.1848 34.9836C32.5117 36.3487 31.6786 37.6289 30.7031 38.7972C29.9535 39.6988 29.118 40.532 28.2805 41.3551C27.8176 41.8101 27.2719 42.1808 26.7641 42.5898L26.6324 42.5L26.1582 42.0945L25.6676 41.0191C25.3325 39.7646 25.1496 38.4744 25.123 37.1761L25.132 36.957L25.1988 36.0093C25.2211 35.6859 25.2508 35.3629 25.2645 35.0386C25.3148 33.8738 25.3586 32.709 25.4047 31.5441V31.5441Z" fill="#3E5741"/>
<path fill-rule="evenodd" clip-rule="evenodd" d="M25.4046 31.5442C25.3585 32.709 25.3147 33.8739 25.2651 35.0391C25.2515 35.3633 25.2218 35.6864 25.1995 36.0098L24.9007 36.1227C24.237 34.1688 23.5729 32.2356 22.9233 30.2973C21.8491 27.0906 20.7878 23.8789 19.7151 20.6715C18.8488 18.0826 17.9764 15.4958 17.0979 12.911C17.0569 12.7899 16.939 12.6953 16.8569 12.5883L18.7694 9.0719C18.8351 9.18596 18.9218 9.2926 18.9632 9.41526C19.8489 12.0333 20.7302 14.6528 21.6069 17.2739C22.746 20.684 23.878 24.0969 25.0163 27.5074C25.0616 27.6438 25.1366 27.7696 25.2081 27.9223L25.4698 27.6176L25.4046 31.5442V31.5442Z" fill="#29382B"/>
<path fill-rule="evenodd" clip-rule="evenodd" d="M16.8575 12.5887C16.9395 12.6957 17.0571 12.7902 17.0985 12.9113C17.9769 15.4962 18.8493 18.083 19.7157 20.6719C20.7883 23.8793 21.8497 27.091 22.9239 30.2977C23.5731 32.2356 24.2372 34.1692 24.9012 36.1231L25.2 36.0102L25.1333 36.9578L25.0727 37.1762C24.9688 38.2137 24.8813 39.2535 24.7547 40.2887C24.6911 40.8074 24.5559 41.3168 24.4532 41.8305C24.3758 41.7184 24.2672 41.6164 24.2254 41.4922C22.0899 35.1262 19.9606 28.7578 17.8286 22.3906C17.1503 20.3643 16.4677 18.3395 15.7809 16.316C15.7461 16.2133 15.6481 16.1328 15.5793 16.0418L16.8575 12.5887V12.5887Z" fill="#29382B"/>
<path fill-rule="evenodd" clip-rule="evenodd" d="M25.4694 27.618L25.2077 27.9227C25.1362 27.7699 25.0612 27.6437 25.0159 27.5078C23.878 24.0973 22.7456 20.6844 21.6065 17.2742C20.7298 14.6532 19.8485 12.0336 18.9628 9.41562C18.9218 9.29297 18.8351 9.18594 18.769 9.07227L21.1343 5.96094C21.2089 6.06055 21.3151 6.14922 21.3538 6.26133C22.0104 8.18359 22.6612 10.1082 23.3081 12.034C23.9124 13.8324 24.5077 15.6336 25.119 17.4297C25.1601 17.55 25.3026 17.6352 25.3979 17.7367L25.4026 18.1449C25.4253 21.302 25.4476 24.4602 25.4694 27.618V27.618Z" fill="#29382B"/>
<path fill-rule="evenodd" clip-rule="evenodd" d="M25.3989 17.7359C25.3036 17.6344 25.161 17.5492 25.12 17.4289C24.5087 15.6328 23.9134 13.8317 23.3091 12.0332C22.6622 10.1074 22.0114 8.18322 21.3548 6.26056C21.3161 6.14845 21.2099 6.05978 21.1353 5.96017C21.9044 5.20704 22.6497 4.42697 23.4497 3.70861C24.161 3.07032 24.7329 2.38595 24.7591 1.37736C24.7603 1.33556 24.7821 1.29376 24.8157 1.17657L25.0185 1.68673C25.0134 1.94493 24.9903 2.20314 25.0071 2.45978C25.0364 2.90626 25.1083 3.3504 25.1286 3.79689C25.1661 4.62775 25.1841 5.46017 25.2009 6.2922C25.2278 7.63126 25.2524 8.97032 25.2692 10.3098C25.2954 12.4496 25.3126 14.5895 25.3396 16.7293C25.3427 17.0656 25.3778 17.4004 25.3989 17.7359V17.7359Z" fill="#29382B"/>
<path fill-rule="evenodd" clip-rule="evenodd" d="M24.4524 41.8301C24.5551 41.3164 24.6903 40.8066 24.754 40.2883C24.8809 39.2535 24.968 38.2133 25.0719 37.1758L25.0977 37.1719L25.1235 37.1762C25.1501 38.4744 25.3329 39.7647 25.668 41.0191C25.5993 41.1098 25.502 41.1906 25.4657 41.293C25.1817 42.0937 24.9141 42.9008 24.6286 43.7016C24.5895 43.8109 24.4809 43.8961 24.4043 43.9922L24.1125 42.9898L24.4524 41.8301V41.8301Z" fill="#A9AA88"/>
<path fill-rule="evenodd" clip-rule="evenodd" d="M24.4048 43.9926C24.4813 43.8965 24.5903 43.8113 24.629 43.702C24.9146 42.9012 25.1825 42.0945 25.4661 41.2934C25.5024 41.191 25.5993 41.1102 25.6685 41.0195L26.1587 42.0953C26.0618 42.2328 25.9282 42.3566 25.8743 42.5098L24.9353 45.2672C24.8966 45.3777 24.7646 45.4559 24.6763 45.5492L24.4048 43.9926V43.9926Z" fill="#B6B598"/>
<path fill-rule="evenodd" clip-rule="evenodd" d="M24.6763 45.5488C24.7649 45.4558 24.8966 45.3773 24.9353 45.2668L25.8743 42.5094C25.9278 42.3566 26.0618 42.2324 26.1587 42.0949L26.6333 42.5C26.404 42.7266 26.2767 42.9883 26.3532 43.3191L26.2091 43.791C26.1435 43.8719 26.0485 43.9422 26.0161 44.0348C25.6884 44.9734 25.3755 45.9172 25.0454 46.8558C25.0036 46.975 24.8876 47.0683 24.8056 47.173C24.763 46.6312 24.7196 46.0906 24.6763 45.5488V45.5488Z" fill="#C2C1A7"/>
<path fill-rule="evenodd" clip-rule="evenodd" d="M24.806 47.173C24.8876 47.068 25.0036 46.9746 25.0458 46.8559C25.3759 45.9176 25.6888 44.9738 26.0165 44.0348C26.0489 43.9426 26.1435 43.8719 26.2095 43.791L26.0106 45.957C25.9575 46.0184 25.8806 46.0719 25.8552 46.1434C25.6306 46.7738 25.4188 47.409 25.1935 48.0395C25.147 48.1695 25.0579 48.2844 24.9884 48.4059C24.9267 48.325 24.8161 48.2469 24.811 48.1625C24.7911 47.834 24.8048 47.5031 24.806 47.173V47.173Z" fill="#CECDB7"/>
<path fill-rule="evenodd" clip-rule="evenodd" d="M24.9878 48.4059C25.0573 48.284 25.1464 48.1691 25.1929 48.0395C25.4187 47.4094 25.63 46.7742 25.8546 46.1434C25.88 46.0719 25.9573 46.0188 26.0101 45.957L26.0147 47.3789L25.539 48.5992L24.9878 48.4059V48.4059Z" fill="#DBDAC7"/>
<path fill-rule="evenodd" clip-rule="evenodd" d="M25.5391 48.5996L26.0148 47.3793L26.1129 48.823L25.5391 48.5996V48.5996Z" fill="#EBE9DC"/>
<path fill-rule="evenodd" clip-rule="evenodd" d="M26.3531 43.3195C26.2766 42.9886 26.4035 42.7265 26.6332 42.5004L26.7649 42.5902L26.3531 43.3195V43.3195Z" fill="#CECDB7"/>
<path fill-rule="evenodd" clip-rule="evenodd" d="M25.1233 37.1766L25.0976 37.1723L25.0718 37.1762L25.1323 36.9578L25.1233 37.1766V37.1766Z" fill="#4FAA41"/>
</svg>
