<svg width="46" height="52" viewBox="0 0 46 52" fill="none" xmlns="http://www.w3.org/2000/svg">
<path d="M44.1819 11.5221L25.2243 0.510887C24.0288 -0.170296 22.4721 -0.170296 21.267 0.510887L2.10697 11.5221C0.87314 12.2321 0 13.5665 0 14.9938V36.9869C0 38.4142 0.895925 39.749 2.12976 40.4629L7.19191 43.339C9.61142 44.5311 10.4665 44.5311 11.5675 44.5311C15.1499 44.5311 17.1963 42.3641 17.1963 38.5845V16.8718C17.1963 16.5651 17.0368 16.1089 16.7358 16.1089H14.3185C14.0124 16.1089 13.3271 16.5651 13.3271 16.8713V38.584C13.3271 40.2595 11.8121 41.9267 8.98075 40.5106L3.75007 37.4948C3.56779 37.3958 3.43925 37.1967 3.43925 36.9869V14.9938C3.43925 14.7865 3.67785 14.5784 3.86142 14.4721L22.9596 3.47988C23.138 3.37882 23.4002 3.37882 23.5782 3.47988L42.4434 14.4696C42.6239 14.5784 42.5603 14.78 42.5603 14.9938V36.9869C42.5603 37.1967 42.639 37.401 42.4606 37.5021L23.5077 48.5008C23.3452 48.5984 23.1436 48.5984 22.9656 48.5008L18.1047 45.5984C17.9581 45.5133 17.7839 45.4827 17.6434 45.5614C16.2909 46.3282 16.0415 46.4301 14.7729 46.8701C14.4608 46.9789 14.0003 47.1676 14.9491 47.6996L21.3109 51.4642C21.9183 51.8151 22.6073 51.9999 23.3087 52C24.0146 52 24.7059 51.8168 25.315 51.4642L44.1815 40.4629C45.4153 39.7439 46 38.4142 46 36.9869V14.9938C46 13.5665 45.4153 12.2355 44.1819 11.5221V11.5221ZM29.195 33.5018C24.1539 33.5018 23.0434 32.1107 22.6733 29.6031C22.6303 29.333 22.4011 29.0101 22.1264 29.0101H19.6626C19.3578 29.0101 19.1128 29.3799 19.1128 29.6835C19.1128 32.8942 20.8578 36.7843 29.1954 36.7843C35.2308 36.7843 38.6912 34.4385 38.6912 30.2869C38.6912 26.1705 35.911 25.0903 30.0578 24.3153C24.1414 23.5331 23.5404 23.1379 23.5404 21.7514C23.5404 20.6084 24.0494 19.0839 28.4301 19.0839C32.3444 19.0839 33.7872 19.9242 34.3809 22.5633C34.4316 22.8115 34.6582 22.9895 34.914 22.9895H37.3877C37.5399 22.9895 37.6852 22.928 37.7918 22.8192C37.895 22.7022 37.9496 22.5556 37.9358 22.3982C37.5528 17.8535 34.5344 15.7356 28.4297 15.7356C22.9996 15.7356 19.7602 18.0294 19.7602 21.8744C19.7602 26.0449 22.9832 27.1974 28.1959 27.7131C34.4316 28.3246 34.9166 29.2363 34.9166 30.4632C34.9166 32.594 33.2064 33.5018 29.195 33.5018Z" fill="#29382B"/>
</svg>
