<svg width="50" height="50" viewBox="0 0 50 50" fill="none" xmlns="http://www.w3.org/2000/svg">
<path fill-rule="evenodd" clip-rule="evenodd" d="M19.6273 16.2563C18.1891 15.8949 16.7488 16.0109 15.2289 16.2477C15.2289 18.9059 15.2234 21.4926 15.2434 24.0797C15.2441 24.2121 15.443 24.4426 15.5719 24.4602C17.2293 24.684 18.8777 24.702 20.4277 23.9465C22.0312 23.1652 22.848 21.5316 22.6363 19.6137C22.4441 17.8672 21.4102 16.7043 19.6273 16.2563V16.2563ZM49.6094 24.9855V1.2832C49.6094 0.464453 49.6184 0.390625 48.8234 0.390625H1.35898C0.585938 0.390625 0.390625 0.464844 0.390625 1.24453V48.709C0.390625 49.4973 0.489063 49.4984 1.25352 49.4984C17.0953 49.4988 32.9844 49.4949 48.8262 49.5129C49.4406 49.5137 49.6055 49.35 49.6039 48.7477C49.5828 40.827 49.6094 32.9055 49.6094 24.9855V24.9855ZM22.0125 27.2668C19.8418 28.041 17.5781 28.0844 15.2344 27.9027V36.7188H10.9375V36.1711C10.9375 28.7902 10.9035 21.4102 10.8828 14.0297C10.8805 13.4168 10.9777 13.1207 11.6684 13.0504C14.923 12.7176 18.1594 12.3434 21.3957 13.1023C24.8746 13.9176 26.8805 16.2176 27.0328 19.3953C27.2215 23.3305 25.4922 26.0258 22.0125 27.2668V27.2668ZM39.3211 32.2488C39.1555 34.5031 37.8844 35.9832 35.7996 36.6988C33.0098 37.6566 30.2352 37.4344 27.5086 36.3508C27.0621 36.173 26.9758 35.948 27.123 35.493C27.3914 34.6625 27.5879 33.8086 27.7949 33.0375C28.9477 33.3758 30.0438 33.798 31.1793 33.9977C31.9813 34.1387 32.848 34.0559 33.6633 33.9281C34.3941 33.8133 34.9199 33.3172 35.0398 32.5328C35.1617 31.7355 34.9215 31.0449 34.2176 30.6207C33.6582 30.284 33.0418 30.043 32.4508 29.7605C31.5004 29.3062 30.4875 28.95 29.6109 28.3816C26.1613 26.1445 27.2844 21.982 29.5863 20.4145C30.818 19.5762 32.1809 19.2043 33.6398 19.1531C35.3559 19.093 37.0082 19.3891 38.6313 20.1777L37.7738 23.2203C37.0941 22.9797 36.4613 22.6672 35.7934 22.543C35.0008 22.3953 34.1695 22.3129 33.3695 22.3781C32.2969 22.466 31.6687 23.2062 31.6687 24.1242C31.6687 24.668 31.875 25.1281 32.3285 25.3918C32.9793 25.7703 33.6699 26.0824 34.3543 26.3992C35.0949 26.7418 35.877 27.0051 36.5898 27.3961C38.4922 28.4391 39.4824 30.0523 39.3211 32.2488Z" fill="#29382B"/>
</svg>
