<svg width="48" height="48" viewBox="0 0 48 48" fill="none" xmlns="http://www.w3.org/2000/svg">
<path fill-rule="evenodd" clip-rule="evenodd" d="M47.1477 28.9937C46.9719 27.8539 46.0145 27.1074 44.9008 27.057C44.4977 27.0387 44.0883 27.0809 43.6863 27.132C43.2008 27.1937 42.7211 27.3031 42.2367 27.3754C41.902 27.4254 41.5625 27.4484 41.2281 27.4828L41.2199 27.4395C41.8441 26.2605 42.4945 25.0945 43.0852 23.8988C43.5379 22.9816 43.9254 22.0313 44.3258 21.0887C44.9883 19.527 45.5176 17.9168 45.9559 16.2805C46.3758 14.7137 46.7352 13.1297 46.848 11.5043C46.8934 10.8551 46.9246 10.2031 46.9211 9.55313C46.918 9.03477 46.8621 8.51563 46.8102 7.99883C46.7516 7.40664 46.5727 6.84531 46.325 6.30508C45.9984 5.59336 45.4922 5.00937 44.9594 4.45469C44.5328 4.01055 44.0637 3.60586 43.5984 3.20156C42.9352 2.62461 42.1895 2.16406 41.4148 1.75508C40.5374 1.2888 39.6077 0.92821 38.6453 0.680859C38.0621 0.532031 37.4656 0.421484 36.875 0.303516C36.6625 0.260547 36.4496 0.171875 36.2371 0.171875H32.2367C32.0922 0.171875 31.9488 0.246484 31.8031 0.262891C30.8453 0.369531 29.8988 0.55 28.9797 0.834766C28.6359 0.941406 28.3219 0.874219 27.9953 0.844141C27.7449 0.821094 27.4988 0.753906 27.2484 0.741406C26.2945 0.69375 25.3395 0.623828 24.3859 0.633984C23.4723 0.643359 22.568 0.79375 21.6836 1.04492C20.9434 1.25508 20.2191 1.51172 19.5559 1.90078C19.2719 2.06719 19.0469 2.03594 18.7531 1.95117C17.766 1.66641 16.7719 1.39883 15.7691 1.17422C15.1441 1.03437 14.5016 0.964844 13.8633 0.898047C13.2508 0.834393 12.636 0.796079 12.0203 0.783203C11.4195 0.770313 10.8145 0.770703 10.2164 0.823828C9.26385 0.906639 8.32491 1.1051 7.42031 1.41484C6.41847 1.75692 5.48237 2.26751 4.65234 2.92461C3.80586 3.59453 3.12695 4.4125 2.58086 5.34648C2.00547 6.33203 1.61094 7.38711 1.36563 8.49531C1.23281 9.0957 1.14883 9.71289 1.05781 10.3227C1.0293 10.5125 1.34375 10.7023 0.953125 10.8914V13.5453C1.34375 13.7219 1.03437 13.898 1.05703 14.075C1.11133 14.5004 1.15937 14.9293 1.23125 15.3516C1.34492 16.0199 1.47969 16.6863 1.61719 17.3504C1.80811 18.2785 2.00943 19.2045 2.22109 20.1281C2.37578 20.8 2.55195 21.468 2.73633 22.1324C3.01797 23.1473 3.29531 24.1641 3.61367 25.1676C3.90937 26.1 4.24805 27.0191 4.58398 27.9383C5.04922 29.2098 5.60625 30.4402 6.27422 31.6195C6.85195 32.6406 7.51211 33.5969 8.39766 34.3836C8.98125 34.902 9.63086 35.3004 10.3871 35.4996C10.9812 35.6559 11.5852 35.6746 12.1934 35.55C12.8863 35.409 13.5336 35.0989 14.0777 34.6473C14.1414 34.5949 14.2113 34.5551 14.2867 34.6512C14.5738 35.0148 14.9582 35.2574 15.3602 35.4672C16.4449 36.0328 17.627 36.2023 18.8277 36.2715C19.1184 36.2883 19.4121 36.2465 19.7051 36.2383C20.2758 36.2227 20.8305 36.1113 21.3762 35.9535C21.6621 35.8707 21.9414 35.7656 22.2324 35.6676C22.2477 35.9773 22.2672 36.2758 22.2762 36.5742L22.3168 38.2016C22.3242 38.4492 22.334 38.6977 22.357 38.9441C22.416 39.5797 22.4738 40.2156 22.5496 40.8492C22.6023 41.2859 22.657 41.7262 22.7598 42.1523C22.9657 43.0127 23.2478 43.853 23.6027 44.6633C23.9425 45.4498 24.4647 46.1441 25.1262 46.6887C25.9934 47.4059 27.0098 47.7117 28.1074 47.7684C28.5613 47.7922 29.0281 47.7699 29.475 47.6887C30.1853 47.5624 30.8878 47.3962 31.5793 47.1906C32.982 46.7672 34.1945 46.0359 35.1004 44.8543C35.616 44.1809 36.0395 43.4523 36.3113 42.648C36.5355 41.9836 36.7469 41.3125 36.9148 40.6324C37.0477 40.0965 37.1133 39.5437 37.1941 38.9965C37.2477 38.6344 37.2797 38.2688 37.3133 37.9039C37.368 37.3113 37.4238 36.7191 37.4633 36.1254C37.4906 35.7121 37.4895 35.2969 37.5059 34.8828C37.5109 34.7566 37.5312 34.6312 37.543 34.5055C37.5539 34.3891 37.6125 34.3488 37.7313 34.3508C38.1496 34.357 38.5687 34.368 38.9859 34.3492C39.4535 34.3281 39.9254 34.3082 40.3855 34.2309C41.0412 34.1213 41.6916 33.9823 42.3348 33.8141C43.0937 33.6156 43.7898 33.2602 44.4598 32.8551C45.2402 32.3836 45.9516 31.8305 46.5289 31.118C47.0309 30.4965 47.2688 29.7781 47.1477 28.9937V28.9937ZM45.8148 29.3773C45.7891 29.7348 45.6254 30.041 45.3879 30.3027C44.2672 31.5383 42.8613 32.2879 41.2531 32.657C40.6422 32.7969 40.0117 32.8695 39.3863 32.9273C38.852 32.9743 38.3152 32.987 37.7793 32.9652C37.3863 32.9504 36.9965 32.8605 36.5949 32.8027C36.5547 33.1699 36.5164 33.5523 36.4699 33.934L36.2828 35.3969C36.2262 35.8605 36.182 36.3258 36.1238 36.7891C36.0668 37.2387 35.9957 37.6867 35.9359 38.1363C35.8801 38.5551 35.8391 38.9758 35.777 39.3937C35.6813 40.0344 35.5898 40.6766 35.4648 41.3121C35.3148 42.0719 35.0848 42.8078 34.7094 43.493C34.2516 44.3293 33.6023 44.9664 32.7762 45.4383C31.9246 45.925 30.9937 46.1781 30.05 46.3898C29.382 46.5398 28.6937 46.5645 28.0172 46.5035C26.8437 46.3973 25.8422 45.8953 25.0852 44.9855C24.3625 44.1172 23.8734 43.1219 23.6984 41.9953C23.6167 41.459 23.5528 40.9202 23.5066 40.3797C23.4548 39.779 23.4159 39.1773 23.3898 38.575C23.3552 37.8109 23.3296 37.0464 23.3129 36.2816C23.2922 35.3418 23.2855 34.402 23.2723 33.4621L23.2699 33.4262C22.7918 33.7129 22.3219 34.027 21.8234 34.2855C21.241 34.5869 20.6033 34.7667 19.9492 34.8141C19.4344 34.8531 18.9129 34.8887 18.4004 34.8477C17.5602 34.7801 16.7207 34.6484 15.9684 34.2348C15.6633 34.0668 15.3449 33.8625 15.1348 33.5941C14.6309 32.9512 14.8723 32.1387 15.632 31.7477C16.157 31.477 16.7301 31.3641 17.2992 31.2324C17.7946 31.12 18.2848 30.9859 18.7684 30.8305C19.2457 30.6742 19.5469 30.2871 19.8441 29.9074L20.3152 29.3016C20.1188 29.2809 19.9336 29.2598 19.7484 29.2426C19.1863 29.1895 18.65 29.0348 18.1371 28.8074C17.698 28.6133 17.6914 28.5922 17.3695 28.9414C16.832 29.525 16.3094 30.1223 15.7828 30.7156C15.3953 31.152 15.0102 31.591 14.6246 32.0285C14.2426 32.4613 13.8848 32.9187 13.4734 33.3215C12.8625 33.9195 12.1262 34.2793 11.2477 34.2387C10.684 34.2129 10.168 34.0152 9.70391 33.6922C8.74609 33.025 8.10078 32.0918 7.51328 31.1117C6.76055 29.8559 6.18281 28.518 5.68828 27.1434C5.34609 26.1934 5.00234 25.2426 4.70352 24.2789C4.37891 23.2316 4.09414 22.1711 3.81406 21.1109C3.60485 20.31 3.41185 19.5049 3.23516 18.6961C3.02913 17.7776 2.83848 16.8557 2.66328 15.9309C2.54688 15.3062 2.4793 14.6727 2.38516 14.0438C2.2582 13.1961 2.23477 12.3406 2.28086 11.4895C2.32188 10.7227 2.43203 9.95781 2.54141 9.19609C2.69297 8.14219 3.04023 7.14766 3.53984 6.20859C3.8457 5.6332 4.22539 5.11016 4.66445 4.62422C5.38516 3.82656 6.25742 3.25 7.22773 2.81719C7.90586 2.51484 8.62227 2.33281 9.35234 2.19063C10.4359 1.97969 11.5293 1.98789 12.623 2.01055C13.1012 2.02031 13.5773 2.10742 14.0551 2.15469C15.0836 2.25703 16.0918 2.47344 17.0871 2.74063C17.8125 2.93516 18.523 3.18711 19.2426 3.40586C19.3148 3.42773 19.4207 3.42578 19.4797 3.38711C20.4547 2.75078 21.5203 2.33086 22.6535 2.09063C23.0836 1.99961 23.5273 1.95977 23.9672 1.93164C24.502 1.89766 25.041 1.86641 25.5746 1.89727C26.216 1.93398 26.8543 2.02852 27.4918 2.11602C27.8012 2.1582 28.1031 2.26563 28.4133 2.29492C28.5617 2.30898 28.7191 2.20039 28.8762 2.16406C29.6766 1.9793 30.4734 1.77344 31.2809 1.62734C31.882 1.51875 32.4961 1.46758 33.1074 1.43242C33.7891 1.39336 34.4758 1.36484 35.157 1.39766C36.0197 1.44038 36.8767 1.56105 37.7176 1.7582C38.7633 2.00156 39.7664 2.35508 40.7199 2.8457C41.4324 3.21211 42.1098 3.63711 42.7195 4.15977C43.1191 4.50273 43.5281 4.84141 43.8891 5.22344C44.3344 5.69453 44.7887 6.16602 45.068 6.76953C45.2781 7.22461 45.4281 7.6957 45.4695 8.19414C45.5211 8.81367 45.5836 9.43555 45.5777 10.0559C45.5723 10.6492 45.4914 11.2422 45.434 11.834C45.3035 13.1832 45.0102 14.5031 44.6539 15.8055C44.3559 16.8813 44.0186 17.9458 43.6426 18.9969C43.2992 19.966 42.9031 20.9176 42.5027 21.8652C42.208 22.5672 41.8877 23.2581 41.5426 23.9367C40.8875 25.2203 40.2063 26.4906 39.4184 27.6996C39.2824 27.9086 39.1535 28.1227 39.0207 28.3359C39.3645 28.568 39.7539 28.6496 40.1461 28.6918C40.5191 28.7324 40.8996 28.7566 41.2723 28.7289C41.8688 28.6848 42.4633 28.5996 43.0562 28.5164C43.6437 28.4344 44.2195 28.2672 44.8227 28.3113C45.425 28.3551 45.8559 28.8129 45.8148 29.3773V29.3773ZM37.216 28.0676C36.9602 27.7371 36.6992 27.4105 36.4488 27.0762C36.0559 26.5512 35.7734 25.9648 35.4898 25.3758C35.2211 24.8176 34.8914 24.2891 34.6082 23.7371C34.1141 22.7742 33.6109 21.8145 33.1559 20.8328C32.5836 19.5996 32.1324 18.3227 31.9902 16.9566C31.9301 16.3785 31.9148 15.8012 32.0316 15.2285C32.2187 14.3141 32.6965 13.5988 33.4996 13.1082C34.2445 12.6531 35.0746 12.5063 35.925 12.4602C36.4527 12.4316 36.9828 12.4551 37.5305 12.4551L37.5121 12.3625C37.1715 11.6504 36.8531 10.9262 36.4805 10.2309C35.9547 9.24961 35.282 8.36484 34.5328 7.54453C33.9777 6.93711 33.3766 6.37344 32.718 5.87539C32.0703 5.38516 31.3879 4.94727 30.6598 4.58906C29.7914 4.16211 28.8871 3.83203 27.9383 3.62148C27.0266 3.41914 26.109 3.29531 25.1738 3.28516C24.3762 3.27656 23.5836 3.3125 22.8066 3.49258C21.634 3.76406 20.5613 4.24687 19.6281 5.02891C19.1118 5.46191 18.6504 5.95647 18.2543 6.50156C17.7871 7.14336 17.4102 7.83633 17.0879 8.56289C16.6457 9.55977 16.3422 10.5973 16.1348 11.6637C16.0309 12.1953 15.9496 12.7316 15.8668 13.2676C15.8379 13.4551 15.8355 13.6469 15.8187 13.8617C15.9629 13.7867 16.0668 13.7289 16.173 13.6773L16.5187 13.5223C17.6879 12.9875 18.8992 12.6434 20.2012 12.6828C20.7543 12.6996 21.2836 12.809 21.7754 13.0512C22.7188 13.5164 23.2707 14.3074 23.5105 15.3086C23.6762 15.9996 23.7895 16.7043 23.8996 17.407C23.9859 17.9559 24.0742 18.5105 24.0844 19.0641C24.0988 19.873 24.0578 20.6836 24.0137 21.4922C23.9758 22.1798 23.8335 22.8576 23.5918 23.5023C23.1543 24.6715 22.6668 25.8215 22.2113 26.984C22.0609 27.368 21.9453 27.7656 21.8031 28.1879C22.0227 28.1879 22.2008 28.1863 22.3789 28.1887C22.4484 28.1898 22.5195 28.1918 22.5867 28.2078C23.1102 28.3313 23.5641 28.5684 23.9363 28.9711C24.4328 29.507 24.6934 30.1324 24.7066 30.8563C24.7141 31.2574 24.6719 31.6598 24.6738 32.0609C24.682 33.9305 24.6961 35.8 24.7117 37.6691C24.7145 37.9746 24.7297 38.2805 24.7516 38.5855C24.7973 39.2242 24.8434 39.8633 24.9059 40.5004C24.9496 40.9523 25.0105 41.4035 25.082 41.8523C25.1832 42.4883 25.4727 43.0543 25.8012 43.5953C26.084 44.0605 26.4516 44.4559 26.9359 44.7285C27.759 45.1918 28.6453 45.2305 29.5387 45.0598C30.1422 44.9445 30.7348 44.7594 31.3207 44.5684C31.8969 44.3835 32.423 44.0689 32.8586 43.6488C33.2691 43.2508 33.5605 42.7656 33.757 42.2301C34.1383 41.1914 34.257 40.0977 34.4148 39.0125C34.4738 38.6062 34.525 38.1988 34.5789 37.7918C34.6402 37.3285 34.7023 36.8656 34.7617 36.4027C34.8055 36.0578 34.8453 35.7121 34.8875 35.3672C34.9477 34.8719 35.0113 34.377 35.0687 33.8812C35.1129 33.498 35.1504 33.1133 35.1895 32.7293C35.2398 32.2387 35.2941 31.748 35.3375 31.2566C35.3711 30.8836 35.3574 30.5039 35.4234 30.1379C35.5449 29.4668 35.8621 28.8957 36.457 28.5266C36.7059 28.3723 36.9867 28.2707 37.2629 28.1402L37.216 28.0676V28.0676ZM14.7172 25.3129C14.4205 24.6152 14.2418 23.8731 14.1883 23.1168C14.1383 22.4039 14.223 21.6937 14.2961 20.984C14.3672 20.2965 14.4262 19.6059 14.4469 18.9152C14.4812 17.7801 14.4047 16.6465 14.3504 15.5121C14.3176 14.8367 14.3961 14.1531 14.4563 13.4762C14.5105 12.8664 14.5781 12.2551 14.6934 11.6543C14.8867 10.6461 15.1434 9.65234 15.5082 8.68906C15.8547 7.77578 16.2527 6.88633 16.8148 6.08555C17.2 5.53633 17.6371 5.02305 18.057 4.48633L17.9324 4.44219C16.566 4.0082 15.1773 3.66914 13.7492 3.52109C13.0738 3.45117 12.3961 3.41016 11.7188 3.36992C11.5109 3.35742 11.3 3.38555 11.0914 3.40547C10.575 3.45469 10.0523 3.47422 9.54414 3.57109C8.6793 3.73555 7.84961 4.01211 7.08125 4.4625C6.39141 4.8668 5.81211 5.38945 5.32695 6.01641C4.79102 6.70859 4.43047 7.49141 4.17148 8.32617C3.86563 9.31094 3.71992 10.3242 3.68047 11.3469C3.64609 12.2434 3.62891 13.1449 3.78359 14.0379C3.89883 14.7027 3.97578 15.3746 4.10273 16.0367C4.27578 16.9395 4.46133 17.8402 4.67578 18.7336C4.98242 20.0125 5.28867 21.2934 5.65195 22.5566C5.99961 23.7672 6.3918 24.9668 6.8168 26.152C7.16445 27.1191 7.56641 28.0684 7.98984 29.0051C8.26562 29.6152 8.59961 30.2023 8.94961 30.7738C9.32188 31.3805 9.74531 31.9563 10.3199 32.3965C11.0449 32.9523 11.6063 33.0387 12.343 32.4289C12.6586 32.1676 12.9254 31.8449 13.2 31.5375C13.6363 31.0492 14.0574 30.5477 14.4918 30.0578C15.0449 29.4336 15.6051 28.816 16.1609 28.1949C16.2785 28.0637 16.3914 27.9285 16.5059 27.7957L16.3168 27.6297C15.6303 26.9753 15.0858 26.1867 14.7172 25.3129V25.3129ZM35.6891 6.73125C36.1435 7.25963 36.5748 7.80755 36.9816 8.37344C37.7629 9.4707 38.3871 10.6555 38.8469 11.923C39.0504 12.4816 39.2129 13.0457 39.1402 13.657C39.0898 14.0852 39.0941 14.5195 39.0562 14.95C39.0246 15.3082 38.968 15.6645 38.9215 16.0215C38.852 16.5598 38.7512 17.0965 38.7211 17.6371C38.6926 18.1516 38.7223 18.6715 38.7547 19.1871C38.7875 19.7109 38.8582 20.2324 38.9063 20.7555C38.9605 21.3484 39.0336 21.9414 39.0504 22.5355C39.0641 23.0234 39.0207 23.5145 38.9781 24.0016C38.9273 24.5883 38.7785 25.1563 38.5566 25.7012C38.4008 26.0848 38.2145 26.4566 38.0383 26.8406L38.109 26.9156L38.2164 26.9988L38.3246 26.8051C39.2384 25.367 40.0505 23.8669 40.7551 22.3156C41.2059 21.3142 41.634 20.3028 42.0391 19.282C42.6734 17.6945 43.1754 16.0625 43.5637 14.398C43.7379 13.6508 43.8711 12.8922 43.9895 12.1336C44.0816 11.5406 44.1586 10.9406 44.1758 10.3422C44.1941 9.70742 44.159 9.06758 44.1004 8.43438C44.0566 7.95625 43.9387 7.475 43.6391 7.08633C43.1574 6.46055 42.6375 5.86211 41.998 5.38867C41.4598 4.98984 40.9234 4.58086 40.3457 4.24531C39.4297 3.71406 38.4383 3.36016 37.4023 3.11914C36.3914 2.88359 35.3672 2.78203 34.3363 2.76055C33.7285 2.74766 33.118 2.81289 32.5113 2.86992C31.9617 2.92148 31.4156 3.00937 30.8621 3.08203C31.4559 3.41602 32.0414 3.71289 32.5938 4.06289C33.7551 4.79844 34.7957 5.68359 35.6891 6.73125V6.73125ZM20.6012 27.3258C20.9766 26.1254 21.4879 24.9793 21.9832 23.8262C22.3848 22.891 22.6043 21.9059 22.6773 20.8941C22.7137 20.3953 22.7035 19.8902 22.6789 19.3898C22.6545 18.8332 22.6034 18.278 22.5258 17.7262C22.4219 17.0227 22.3035 16.3188 22.1371 15.6281C21.9566 14.8809 21.5016 14.3605 20.7219 14.1688C20.2469 14.052 19.775 14.0566 19.2949 14.1324C18.1223 14.3172 17.0488 14.7492 16.0488 15.382C15.8477 15.5094 15.7371 15.6121 15.7719 15.9008C15.8453 16.5121 15.8613 17.1332 15.8586 17.7504C15.8547 18.6238 15.8176 19.4973 15.7844 20.3703C15.7734 20.6547 15.7324 20.9375 15.702 21.2207C15.6551 21.6543 15.5648 22.0875 15.5676 22.5203C15.5703 22.9664 15.616 23.423 15.7242 23.8551C16.068 25.225 16.7961 26.3461 17.9895 27.1371C18.7234 27.6234 19.5355 27.8688 20.427 27.9152C20.4875 27.7105 20.5414 27.5172 20.6012 27.3258ZM19.2004 15.573C19.0434 15.2434 19.1332 14.9703 19.4973 14.8438C19.5859 14.8125 19.6773 14.7793 19.7695 14.7703C19.8961 14.7578 20.025 14.7672 20.1531 14.7672C20.6148 14.7695 21.059 14.834 21.4402 15.1277C21.6848 15.316 21.7504 15.566 21.5922 15.8227C21.3676 16.1867 21.025 16.3695 20.6043 16.4047C19.9414 16.4598 19.4762 16.1508 19.2004 15.573ZM37.5754 15.4527C37.6285 15.0137 37.6711 14.5734 37.7254 14.1344C37.7473 13.9578 37.6543 13.9102 37.5062 13.9059C37.0406 13.893 36.575 13.8766 36.1094 13.868C35.5844 13.8586 35.0734 13.943 34.5875 14.1426C34.0484 14.3645 33.6379 14.7199 33.4703 15.3066C33.3477 15.7393 33.3089 16.1914 33.3559 16.6387C33.4211 17.3303 33.5778 18.0102 33.8219 18.6605C34.1477 19.5281 34.4887 20.3953 34.8961 21.2266C35.448 22.352 36.0727 23.4414 36.659 24.5496C36.8156 24.8453 36.9473 25.1539 37.1105 25.4992C37.4398 24.8127 37.6196 24.0642 37.6383 23.3031C37.6543 22.6742 37.6039 22.0426 37.5672 21.4133C37.5441 21.0281 37.4898 20.6453 37.4523 20.2609C37.4 19.7254 37.3207 19.1902 37.3086 18.6535C37.2965 18.1078 37.3352 17.559 37.382 17.0141C37.4262 16.4914 37.5125 15.973 37.5754 15.4527V15.4527ZM36.525 15.0301C36.352 15.5078 35.982 15.7773 35.5023 15.8566C35.0551 15.9301 34.6633 15.7648 34.3719 15.4082C34.1645 15.1543 34.2437 14.8535 34.5547 14.682C34.9117 14.4844 35.3043 14.4344 35.7672 14.4043C35.893 14.4273 36.0824 14.4465 36.2625 14.498C36.5238 14.5719 36.6203 14.7684 36.525 15.0301ZM22.6883 29.741C22.4324 29.532 22.0941 29.5199 21.8508 29.7492C21.5488 30.0344 21.2832 30.3605 21.0176 30.682C20.7109 31.0535 20.4234 31.4398 20.0277 31.7277C19.452 32.1461 18.7809 32.3195 18.1062 32.4836C17.5699 32.6141 17.0313 32.7352 16.4934 32.8605L16.4867 32.9301C16.6465 33.0039 16.8012 33.0961 16.9676 33.1488C17.7879 33.4086 18.6223 33.5379 19.4891 33.4645C20.1148 33.4113 20.7109 33.275 21.2758 33.007C22.0531 32.6387 22.6512 32.0551 23.1598 31.3762C23.2449 31.2629 23.2836 31.0953 23.2938 30.9492C23.3285 30.4332 23.0664 30.0496 22.6883 29.741V29.741ZM42.9035 29.9465C42.2434 30.0172 41.5824 30.0922 40.9203 30.1301C40.6008 30.1484 40.2766 30.0875 39.9539 30.0613C39.4129 30.0176 38.8848 29.8973 38.4273 29.6082C38.1625 29.4414 37.9426 29.4227 37.6613 29.5172C37.2598 29.6523 36.932 29.8578 36.8352 30.293C36.7691 30.5871 36.7453 30.8918 36.7187 31.193C36.7137 31.2461 36.7801 31.3437 36.8309 31.357C37.1406 31.4387 37.452 31.5352 37.7688 31.5637C38.1578 31.5988 38.5539 31.5875 38.9457 31.568C39.3688 31.5469 39.7945 31.5195 40.2113 31.4492C41.1937 31.2844 42.1441 31.0156 42.9883 30.4586C43.2926 30.2574 43.5941 30.052 43.8965 29.8484L43.8715 29.8055C43.5488 29.8535 43.2277 29.9121 42.9035 29.9465V29.9465Z" fill="#29382B"/>
</svg>
