<svg width="53" height="48" viewBox="0 0 53 48" fill="none" xmlns="http://www.w3.org/2000/svg">
<path d="M26.5 28.8944C29.1652 28.8944 31.3258 26.7031 31.3258 24C31.3258 21.2969 29.1652 19.1055 26.5 19.1055C23.8347 19.1055 21.6741 21.2969 21.6741 24C21.6741 26.7031 23.8347 28.8944 26.5 28.8944Z" fill="#29382B"/>
<path d="M44.8299 15.9284C43.8986 15.585 42.9249 15.2415 41.9089 14.941C42.1629 13.9106 42.3746 12.8801 42.5439 11.8927C43.4329 6.2254 42.4593 2.23256 39.75 0.686941C38.9457 0.214669 38.0567 0 37.0407 0C34.0775 0 30.3099 2.23256 26.5 5.9678C22.6901 2.23256 18.9225 0 15.9593 0C14.9433 0 14.0543 0.214669 13.25 0.686941C10.5407 2.27549 9.56709 6.26834 10.4561 11.8927C10.6254 12.8801 10.8371 13.9106 11.0911 14.941C10.0751 15.2415 9.10144 15.542 8.17013 15.9284C2.87859 17.9893 0 20.8229 0 24C0 27.1771 2.92093 30.0107 8.17013 32.0716C9.10144 32.415 10.0751 32.7585 11.0911 33.059C10.8371 34.0894 10.6254 35.1199 10.4561 36.1073C9.56709 41.7746 10.5407 45.7674 13.25 47.3131C14.0543 47.7853 14.9433 48 15.9593 48C18.9649 48 22.7324 45.7674 26.5 42.0322C30.3099 45.7674 34.0775 48 37.0407 48C38.0567 48 38.9457 47.7853 39.75 47.3131C42.4593 45.7245 43.4329 41.7317 42.5439 36.1073C42.3746 35.1199 42.1629 34.0894 41.9089 33.059C42.9249 32.7585 43.8986 32.458 44.8299 32.0716C50.1214 30.0107 53 27.1771 53 24C53 20.8229 50.1214 17.9893 44.8299 15.9284V15.9284ZM38.5647 2.83363C40.3003 3.86404 40.893 7.04114 40.1733 11.5492C40.0463 12.4508 39.8347 13.3953 39.5807 14.3828C37.3794 13.8676 35.0511 13.5241 32.5958 13.3095C31.1566 11.2487 29.6749 9.4025 28.1933 7.72809C31.3259 4.59392 34.5008 2.44723 37.0831 2.44723C37.6334 2.44723 38.1414 2.57603 38.5647 2.83363V2.83363ZM33.8235 28.2934C33.0615 29.6673 32.1725 31.0411 31.2412 32.415C29.6749 32.5438 28.1086 32.5868 26.5 32.5868C24.849 32.5868 23.2827 32.5438 21.7588 32.415C20.8275 31.0411 19.9808 29.6673 19.2188 28.2934C18.4145 26.8766 17.6526 25.4168 16.9752 24C17.6526 22.5832 18.4145 21.1234 19.2188 19.7066C19.9808 18.3327 20.8698 16.9589 21.8011 15.585C23.3674 15.4562 24.9337 15.4132 26.5423 15.4132C28.1933 15.4132 29.7596 15.4562 31.2835 15.585C32.2149 16.9589 33.0615 18.3327 33.8235 19.7066C34.6278 21.1234 35.3898 22.5832 36.0671 24C35.3474 25.4168 34.6278 26.8336 33.8235 28.2934ZM37.3371 26.8766C37.972 28.3792 38.48 29.839 38.9457 31.2987C37.5064 31.6422 35.9824 31.8998 34.3738 32.1145C34.8818 31.2987 35.4321 30.4401 35.8978 29.5385C36.4058 28.6369 36.8714 27.7352 37.3371 26.8766ZM26.5 38.5116C25.484 37.3954 24.5104 36.1932 23.5791 34.9481C24.5527 34.9911 25.5264 35.034 26.5 35.034C27.4736 35.034 28.4473 34.9911 29.4209 34.9481C28.4896 36.1932 27.516 37.3954 26.5 38.5116ZM18.6262 32.0716C17.0176 31.8569 15.4936 31.5993 14.0543 31.2558C14.52 29.839 15.028 28.3363 15.6629 26.8336C16.1286 27.6923 16.5942 28.5939 17.1022 29.4526C17.6102 30.3971 18.1182 31.2129 18.6262 32.0716V32.0716ZM15.6629 21.1234C15.028 19.6207 14.52 18.161 14.0543 16.7013C15.4936 16.3578 17.0176 16.1002 18.6262 15.8855C18.1182 16.7013 17.5679 17.5599 17.1022 18.4615C16.5942 19.3631 16.1286 20.2648 15.6629 21.1234V21.1234ZM26.5 9.48837C27.516 10.6047 28.4896 11.8068 29.4209 13.0519C28.4473 13.0089 27.4736 12.966 26.5 12.966C25.5264 12.966 24.5527 13.0089 23.5791 13.0519C24.5104 11.8068 25.484 10.6047 26.5 9.48837ZM35.8978 18.5045L34.3738 15.9284C35.9824 16.1431 37.5064 16.4007 38.9457 16.7442C38.48 18.161 37.972 19.6637 37.3371 21.1664C36.8714 20.2648 36.4058 19.3631 35.8978 18.5045ZM12.8267 11.5492C12.107 7.04114 12.6997 3.86404 14.4353 2.83363C14.8586 2.57603 15.3666 2.44723 15.9169 2.44723C18.4569 2.44723 21.6318 4.55098 24.8067 7.72809C23.3251 9.35957 21.8435 11.2487 20.4042 13.3095C17.9489 13.5241 15.6206 13.9106 13.4193 14.3828C13.1653 13.3953 12.996 12.4508 12.8267 11.5492V11.5492ZM2.37061 24C2.37061 21.9821 4.78355 19.8354 9.01677 18.2469C9.86342 17.9034 10.7947 17.6029 11.726 17.3453C12.4034 19.492 13.25 21.7674 14.266 24.0429C13.25 26.3184 12.361 28.551 11.726 30.6977C5.88419 28.9803 2.37061 26.4043 2.37061 24ZM14.4353 45.1664C12.6997 44.136 12.107 40.9589 12.8267 36.4508C12.9537 35.5492 13.1653 34.6047 13.4193 33.6172C15.6206 34.1324 17.9489 34.4759 20.4042 34.6905C21.8435 36.7513 23.3251 38.5975 24.8067 40.2719C21.6741 43.4061 18.4992 45.5528 15.9169 45.5528C15.3666 45.5528 14.8586 45.424 14.4353 45.1664ZM40.1733 36.4508C40.893 40.9589 40.3003 44.136 38.5647 45.1664C38.1414 45.424 37.6334 45.5528 37.0831 45.5528C34.5431 45.5528 31.3682 43.449 28.1933 40.2719C29.6749 38.6404 31.1566 36.7513 32.5958 34.6905C35.0511 34.4759 37.3794 34.0894 39.5807 33.6172C39.8347 34.6047 40.004 35.5492 40.1733 36.4508V36.4508ZM43.9832 29.7531C43.1366 30.0966 42.2053 30.3971 41.274 30.6547C40.5966 28.5081 39.75 26.2326 38.734 23.9571C39.75 21.6816 40.639 19.449 41.274 17.3023C47.1158 19.0197 50.6294 21.5957 50.6294 24C50.6294 26.0179 48.1741 28.1646 43.9832 29.7531Z" fill="#29382B"/>
</svg>
