<svg width="50" height="48" viewBox="0 0 50 48" fill="none" xmlns="http://www.w3.org/2000/svg">
<path d="M34.6444 33.418C31.1288 40.6055 24.9726 45.4414 16.828 47.0313C15.5792 47.3372 14.2973 47.4868 13.0116 47.4766C8.32412 47.4766 4.02725 45.5234 1.94131 42.3242C-0.859472 38.0625 -1.8126 29.0273 7.42178 22.3437C7.60928 23.3633 7.99209 24.7617 8.246 25.5898C6.43323 26.9366 4.94942 28.6768 3.90615 30.6797C2.1874 34.0547 2.37881 37.4258 4.41397 40.543C5.82022 42.6445 8.04678 43.9219 10.9101 44.3125C14.4864 44.7652 18.1145 44.0819 21.2812 42.3594C26.246 39.75 29.5546 36.6328 31.7187 32.3711C31.1067 31.7387 30.7445 30.9061 30.6991 30.0273C30.6664 29.0843 31.0092 28.1668 31.6522 27.4762C32.2952 26.7857 33.1859 26.3784 34.1288 26.3438H34.2616C35.1788 26.3392 36.0626 26.6873 36.7303 27.3162C37.3979 27.9451 37.7982 28.8066 37.8484 29.7224C37.8986 30.6382 37.5948 31.5382 36.9999 32.2363C36.4049 32.9344 35.5644 33.377 34.6522 33.4727L34.6444 33.418ZM45.8437 25.5273C50.6132 30.9336 50.7421 37.2969 48.8983 40.9883C47.1796 44.3594 42.6483 47.7344 36.5546 47.7344C33.7099 47.6763 30.9115 47.0034 28.3515 45.7617C29.246 45.125 30.5155 44.1055 31.2147 43.4687C33.1889 44.324 35.3135 44.7781 37.4647 44.8047C41.4101 44.8047 44.3983 42.9609 46.1796 39.5898C47.3241 37.3633 47.3905 34.7539 46.3085 32.082C44.9808 28.7203 42.6182 25.8679 39.5624 23.9375C35.5533 21.2349 30.827 19.7942 25.9921 19.8008H24.8476C24.5807 20.4173 24.1465 20.9468 23.5942 21.3292C23.0419 21.7117 22.3935 21.9319 21.7226 21.9648H21.6015C20.6734 21.9534 19.7863 21.5807 19.1287 20.9258C18.4711 20.2708 18.0946 19.3853 18.0794 18.4573C18.0641 17.5293 18.4112 16.6319 19.047 15.9557C19.6828 15.2795 20.5571 14.8778 21.4843 14.8359H21.6132C22.2593 14.8364 22.8928 15.015 23.4441 15.3519C23.9954 15.6889 24.4431 16.1713 24.7382 16.7461H25.7577C33.8827 16.7461 41.0155 19.8633 45.8437 25.5273V25.5273ZM13.5194 34.5117C13.4525 33.8631 13.6097 33.211 13.9647 32.6641C10.4022 26.4922 8.496 18.668 11.4218 10.5234C13.5194 4.40234 18.8007 0.265625 24.5272 0.265625C30.6366 0.265625 36.9999 5.61328 37.7616 15.918C36.8085 15.6016 35.4179 15.1367 34.5819 14.9648C34.3749 11.5937 31.5272 3.19531 24.7812 3.32031C22.3632 3.38672 18.8007 4.53125 16.9687 6.88281C14.7025 9.68992 13.3842 13.143 13.203 16.7461C12.7736 21.6866 13.9328 26.6352 16.5116 30.8711C16.654 30.8191 16.8057 30.7978 16.9569 30.8086H17.0819C18.0268 30.7915 18.9397 31.1504 19.6199 31.8065C20.3001 32.4625 20.6918 33.3618 20.7089 34.3066C20.726 35.2515 20.367 36.1644 19.711 36.8446C19.055 37.5248 18.1557 37.9165 17.2108 37.9336H17.0819C16.1602 37.9303 15.2752 37.5715 14.6116 36.9318C13.9479 36.2921 13.5567 35.421 13.5194 34.5V34.5117Z" fill="#29382B"/>
</svg>
