<svg width="83" height="51" viewBox="0 0 83 51" fill="none" xmlns="http://www.w3.org/2000/svg">
<path d="M41.4983 0.832153C30.4368 0.832153 23.5258 6.31207 20.7583 17.2764C24.905 11.7958 29.7459 9.7407 35.275 11.111C38.432 11.8909 40.6882 14.16 43.1867 16.6744C47.253 20.7648 51.9597 25.5001 62.2383 25.5001C73.2992 25.5001 80.2108 20.0195 82.9783 9.05266C78.831 14.5364 73.9908 16.5916 68.461 15.2213C65.3046 14.4407 63.0511 12.1723 60.5493 9.65783C56.4856 5.56749 51.7802 0.832153 41.4983 0.832153V0.832153ZM20.7583 25.5001C9.69741 25.5001 2.7858 30.9807 0.0183105 41.9475C4.16501 36.4638 9.00521 34.4087 14.535 35.7789C17.692 36.5595 19.9482 38.8279 22.4467 41.3424C26.513 45.4327 31.2197 50.1681 41.4983 50.1681C52.5592 50.1681 59.4708 44.6881 62.2383 33.7238C58.091 39.2044 53.2508 41.2595 47.721 39.8892C44.5646 39.1093 42.3111 36.8402 39.8093 34.3258C35.7456 30.2354 31.0402 25.5001 20.7583 25.5001Z" fill="#29382B"/>
</svg>
