<svg width="50" height="50" viewBox="0 0 50 50" fill="none" xmlns="http://www.w3.org/2000/svg">
<path d="M0.585938 24.9648V49.3789H49.4141V0.550781H0.585938V24.9648ZM39.9336 23.0117C41.1031 23.2831 42.166 23.8948 42.9883 24.7695C43.441 25.2408 43.8345 25.7655 44.1602 26.332C44.1602 26.3945 42.0508 27.8203 40.7656 28.6172C40.7188 28.6484 40.5313 28.4453 40.3242 28.1367C40.0896 27.7319 39.7563 27.3931 39.3553 27.152C38.9543 26.9109 38.4988 26.7753 38.0313 26.7578C36.5508 26.6562 35.5977 27.4336 35.6055 28.7109C35.5932 29.029 35.666 29.3445 35.8164 29.625C36.1406 30.3008 36.7461 30.7031 38.6445 31.5234C42.1406 33.0273 43.6367 34.0195 44.5664 35.4297C45.6055 36.9922 45.8359 39.5156 45.1328 41.3828C44.3516 43.4141 42.4375 44.793 39.7305 45.25C38.4941 45.3916 37.2449 45.3785 36.0117 45.2109C34.1217 44.8994 32.3808 43.992 31.043 42.6211C30.5938 42.125 29.7188 40.832 29.7734 40.7383C29.916 40.6324 30.0662 40.5371 30.2227 40.4531L32.0312 39.4531L33.4336 38.6406L33.7266 39.0742C34.221 39.7815 34.8502 40.3842 35.5781 40.8477C37.1406 41.668 39.2734 41.5547 40.3281 40.6055C40.6822 40.2576 40.9032 39.7966 40.9524 39.3027C41.0016 38.8088 40.8761 38.3132 40.5977 37.9023C40.207 37.3594 39.4258 36.9023 37.2422 35.9492C34.7227 34.8633 33.6367 34.1914 32.6445 33.1211C32.0251 32.4148 31.5678 31.5815 31.3047 30.6797C31.1084 29.6494 31.0794 28.5942 31.2187 27.5547C31.7383 25.1211 33.5625 23.4219 36.2266 22.918C37.4603 22.7653 38.71 22.7996 39.9336 23.0195V23.0117ZM28.4727 25.0586V27.0586H22.1328V45.1172H17.6367V27.0547H11.2812V25.1016C11.2615 24.428 11.2771 23.7539 11.3281 23.082C11.3594 23.0469 15.2344 23.0469 19.9219 23.0469H28.4492L28.4727 25.0586Z" fill="#29382B"/>
</svg>
